<svg width="1920" height="1166" viewBox="0 0 1920 1166" fill="none" xmlns="http://www.w3.org/2000/svg">
<g id="studio_7">
<g id="tattoo-master">
<g id="Vector_45">
<path d="M1785 487.9H1676.67L1649.37 407.75L1753.17 407.75L1785 487.9Z" fill="#7900C4"/>
<path d="M1752.7 408.445L1783.98 487.205H1677.17L1650.34 408.445H1752.7Z" stroke="white" stroke-opacity="0.25" stroke-width="1.38961"/>
</g>
<path id="&#208;&#162;&#208;&#176;&#209;&#130;&#209;&#131;&#209;&#136;&#208;&#181;&#209;&#135;&#208;&#189;&#208;&#176;&#209;&#143;" d="M1677.81 467.032L1677.2 465.43H1686.19L1686.8 467.032H1683.26L1686.64 475.968H1684.73L1681.36 467.032H1677.81ZM1693.08 470.909C1692.75 470.01 1691.89 469.561 1690.98 469.561C1690.03 469.561 1689.69 469.966 1689.69 470.445H1687.97C1687.74 469.202 1688.51 468.154 1690.51 468.154C1692.51 468.154 1694.21 469.157 1694.89 470.938L1696.79 475.968H1695.09L1694.76 475.099C1694.46 475.773 1693.69 476.147 1692.63 476.147C1691.05 476.147 1689.46 475.249 1688.89 473.752C1688.32 472.241 1689.23 471.343 1691.26 471.343H1693.25L1693.08 470.909ZM1690.71 473.692C1690.97 474.381 1691.69 474.755 1692.51 474.755C1693.59 474.755 1694.3 474.127 1693.91 473.094L1693.73 472.63H1691.88C1690.95 472.63 1690.45 473.004 1690.71 473.692ZM1695.83 469.831L1695.27 468.334H1702.31L1702.87 469.831H1700.26L1702.58 475.968H1700.76L1698.44 469.831H1695.83ZM1709.19 468.334H1711.15L1710.72 478.826H1708.77L1708.89 475.818L1702.93 468.334H1704.9L1709.11 473.797L1709.19 468.334ZM1715.31 475.968L1712.42 468.334H1714.25L1716.56 474.471H1719.25L1716.93 468.334H1718.76L1721.08 474.471H1723.76L1721.45 468.334H1723.27L1726.15 475.968H1715.31ZM1726.47 472.166C1725.53 469.681 1726.57 468.154 1728.87 468.154C1731.11 468.154 1733.13 469.636 1734 471.941L1734.26 472.645H1728.52L1728.53 472.675C1728.97 473.827 1730.19 474.725 1731.5 474.725C1732.47 474.725 1732.85 474.246 1732.85 473.902H1734.64C1734.8 474.875 1734.23 476.147 1732 476.147C1729.59 476.147 1727.4 474.635 1726.47 472.166ZM1728.05 471.358H1731.97C1731.49 470.25 1730.53 469.576 1729.39 469.576C1728.24 469.576 1727.75 470.265 1728.05 471.358ZM1739.03 468.334H1740.86L1743.74 475.968H1741.92L1740.78 472.959C1740.42 473.199 1739.87 473.348 1739.1 473.348C1737.31 473.348 1735.56 472.39 1734.76 470.28L1734.02 468.334H1735.85L1736.54 470.16C1736.97 471.298 1737.83 471.851 1738.95 471.851C1739.55 471.851 1739.96 471.717 1740.24 471.537L1739.03 468.334ZM1747.77 475.968H1745.95L1743.06 468.334H1744.89L1745.99 471.268H1749.5L1748.39 468.334H1750.21L1753.1 475.968H1751.27L1750.07 472.779H1746.57L1747.77 475.968ZM1758.18 470.909C1757.84 470.01 1756.98 469.561 1756.07 469.561C1755.13 469.561 1754.78 469.966 1754.79 470.445H1753.06C1752.83 469.202 1753.6 468.154 1755.6 468.154C1757.6 468.154 1759.31 469.157 1759.98 470.938L1761.88 475.968H1760.19L1759.86 475.099C1759.55 475.773 1758.78 476.147 1757.73 476.147C1756.14 476.147 1754.55 475.249 1753.99 473.752C1753.42 472.241 1754.33 471.343 1756.36 471.343H1758.34L1758.18 470.909ZM1755.81 473.692C1756.07 474.381 1756.78 474.755 1757.6 474.755C1758.69 474.755 1759.39 474.127 1759 473.094L1758.83 472.63H1756.97C1756.04 472.63 1755.55 473.004 1755.81 473.692ZM1763.26 475.968L1764.3 473.228C1763.12 472.809 1762.2 471.941 1761.81 470.909C1761.27 469.472 1761.88 468.334 1763.84 468.334H1767.33L1770.22 475.968H1768.41L1767.48 473.498H1766.24L1765.3 475.968H1763.26ZM1763.62 470.923C1763.89 471.627 1764.6 472.121 1765.5 472.121H1766.95L1766.05 469.726H1764.59C1763.71 469.726 1763.36 470.22 1763.62 470.923Z" fill="white"/>
</g>
<g id="regresolog-astrolog">
<g id="Vector_46">
<path d="M1708.57 581.56H1823L1788.32 494.22L1678.82 494.22L1708.57 581.56Z" fill="#7900C4"/>
<path d="M1679.79 494.915H1787.85L1821.98 580.865H1709.07L1679.79 494.915Z" stroke="white" stroke-opacity="0.25" stroke-width="1.38961"/>
</g>
<path id="&#208;&#160;&#208;&#181;&#208;&#179;&#209;&#128;&#208;&#181;&#209;&#129;c&#208;&#190;&#208;&#187;&#208;&#190;&#208;&#179; &#208;&#184; &#208;&#176;&#209;&#129;&#209;&#130;&#209;&#128;&#208;&#190;&#208;&#187;&#208;&#190;&#208;&#179;" d="M1709.07 543.43C1711.56 543.43 1713.53 544.957 1714.25 546.873C1714.97 548.774 1714.1 550.33 1711.72 550.33H1709.48L1710.85 553.968H1708.95L1704.97 543.43H1709.07ZM1708.89 548.774H1710.89C1712.25 548.774 1712.74 547.981 1712.32 546.873C1711.9 545.765 1710.86 545.002 1709.47 545.002H1707.47L1708.89 548.774ZM1716.53 550.166C1715.59 547.681 1716.63 546.154 1718.93 546.154C1721.17 546.154 1723.19 547.636 1724.06 549.941L1724.33 550.645H1718.58L1718.59 550.675C1719.03 551.827 1720.25 552.725 1721.56 552.725C1722.54 552.725 1722.92 552.246 1722.91 551.902H1724.71C1724.87 552.875 1724.29 554.147 1722.07 554.147C1719.65 554.147 1717.46 552.635 1716.53 550.166ZM1718.11 549.358H1722.03C1721.55 548.25 1720.59 547.576 1719.46 547.576C1718.3 547.576 1717.81 548.265 1718.11 549.358ZM1727.32 553.968L1724.44 546.334H1730.04L1730.6 547.831H1726.83L1729.14 553.968H1727.32ZM1735.88 546.154C1737.78 546.154 1740.01 547.532 1741 550.151C1741.99 552.77 1740.78 554.147 1738.85 554.147C1737.66 554.147 1736.65 553.668 1736.04 553.114L1737.44 556.826H1735.62L1731.66 546.334H1733.42L1733.79 547.322C1733.96 546.708 1734.58 546.154 1735.88 546.154ZM1734.89 550.181C1735.45 551.678 1736.68 552.635 1737.97 552.635C1739.25 552.635 1739.73 551.648 1739.16 550.151C1738.6 548.669 1737.38 547.666 1736.1 547.666C1734.8 547.666 1734.3 548.624 1734.86 550.121L1734.89 550.181ZM1742.28 550.166C1741.34 547.681 1742.38 546.154 1744.68 546.154C1746.92 546.154 1748.94 547.636 1749.81 549.941L1750.08 550.645H1744.33L1744.34 550.675C1744.78 551.827 1746 552.725 1747.31 552.725C1748.29 552.725 1748.67 552.246 1748.66 551.902H1750.46C1750.62 552.875 1750.04 554.147 1747.82 554.147C1745.4 554.147 1743.21 552.635 1742.28 550.166ZM1743.86 549.358H1747.78C1747.3 548.25 1746.34 547.576 1745.21 547.576C1744.05 547.576 1743.56 548.265 1743.86 549.358ZM1756.07 552.635C1757.24 552.635 1757.48 551.947 1757.42 551.363H1759.19C1759.58 552.86 1758.72 554.147 1756.63 554.147C1754.23 554.147 1752.04 552.471 1751.17 550.151C1750.3 547.861 1751.19 546.154 1753.61 546.154C1755.82 546.154 1757.54 547.546 1758.25 548.909H1756.47C1756.06 548.34 1755.3 547.666 1754.18 547.666C1752.88 547.666 1752.47 548.684 1753.02 550.151C1753.59 551.648 1754.79 552.635 1756.07 552.635ZM1764.85 552.635C1766.02 552.635 1766.26 551.947 1766.2 551.363H1767.97C1768.36 552.86 1767.5 554.147 1765.41 554.147C1763.01 554.147 1760.82 552.471 1759.95 550.151C1759.08 547.861 1759.97 546.154 1762.39 546.154C1764.6 546.154 1766.32 547.546 1767.03 548.909H1765.25C1764.85 548.34 1764.08 547.666 1762.96 547.666C1761.66 547.666 1761.25 548.684 1761.8 550.151C1762.37 551.648 1763.57 552.635 1764.85 552.635ZM1771.23 546.154C1773.63 546.154 1775.87 547.786 1776.76 550.151C1777.65 552.516 1776.65 554.147 1774.25 554.147C1771.85 554.147 1769.62 552.516 1768.73 550.151C1767.83 547.786 1768.83 546.154 1771.23 546.154ZM1770.58 550.151C1771.14 551.618 1772.34 552.635 1773.68 552.635C1775.03 552.635 1775.46 551.618 1774.9 550.151C1774.35 548.684 1773.15 547.666 1771.8 547.666C1770.46 547.666 1770.03 548.684 1770.58 550.151ZM1778.97 553.997L1778.4 552.501H1778.66C1779.57 552.501 1779.71 552.067 1779.37 550.914L1778.04 546.334H1784.04L1786.92 553.968H1785.1L1782.78 547.831H1780.22L1781.14 551.034C1781.77 553.144 1781.26 553.997 1779.46 553.997H1778.97ZM1789.75 546.154C1792.15 546.154 1794.38 547.786 1795.28 550.151C1796.17 552.516 1795.17 554.147 1792.77 554.147C1790.37 554.147 1788.14 552.516 1787.24 550.151C1786.35 547.786 1787.35 546.154 1789.75 546.154ZM1789.1 550.151C1789.65 551.618 1790.85 552.635 1792.2 552.635C1793.54 552.635 1793.97 551.618 1793.42 550.151C1792.87 548.684 1791.66 547.666 1790.32 547.666C1788.98 547.666 1788.55 548.684 1789.1 550.151ZM1798.46 553.968L1795.58 546.334H1801.18L1801.74 547.831H1797.97L1800.29 553.968H1798.46ZM1720.19 565.044L1723.07 572.677H1721.28L1719.37 567.603L1717.59 572.677H1715.83L1712.94 565.044H1714.73L1716.65 570.118L1718.43 565.044H1720.19ZM1731.64 567.618C1731.3 566.72 1730.44 566.271 1729.53 566.271C1728.58 566.271 1728.24 566.675 1728.25 567.154H1726.52C1726.29 565.912 1727.06 564.864 1729.06 564.864C1731.06 564.864 1732.77 565.867 1733.44 567.648L1735.34 572.677H1733.64L1733.32 571.809C1733.01 572.482 1732.24 572.857 1731.18 572.857C1729.6 572.857 1728.01 571.959 1727.45 570.462C1726.88 568.95 1727.78 568.052 1729.82 568.052H1731.8L1731.64 567.618ZM1729.26 570.402C1729.52 571.09 1730.24 571.465 1731.06 571.465C1732.15 571.465 1732.85 570.836 1732.46 569.803L1732.29 569.339H1730.43C1729.5 569.339 1729 569.713 1729.26 570.402ZM1740.48 571.345C1741.65 571.345 1741.89 570.656 1741.83 570.073H1743.6C1743.99 571.569 1743.13 572.857 1741.04 572.857C1738.64 572.857 1736.45 571.18 1735.58 568.86C1734.71 566.57 1735.6 564.864 1738.02 564.864C1740.23 564.864 1741.95 566.256 1742.66 567.618H1740.88C1740.48 567.049 1739.71 566.376 1738.59 566.376C1737.29 566.376 1736.88 567.393 1737.43 568.86C1738 570.357 1739.2 571.345 1740.48 571.345ZM1743.15 566.54L1742.58 565.044H1749.62L1750.19 566.54H1747.58L1749.9 572.677H1748.08L1745.76 566.54H1743.15ZM1755.41 564.864C1757.32 564.864 1759.55 566.241 1760.54 568.86C1761.53 571.48 1760.32 572.857 1758.38 572.857C1757.2 572.857 1756.19 572.378 1755.58 571.824L1756.98 575.536H1755.16L1751.19 565.044H1752.95L1753.33 566.031C1753.49 565.418 1754.12 564.864 1755.41 564.864ZM1754.42 568.89C1754.99 570.387 1756.21 571.345 1757.51 571.345C1758.79 571.345 1759.26 570.357 1758.7 568.86C1758.14 567.378 1756.91 566.376 1755.63 566.376C1754.34 566.376 1753.83 567.334 1754.4 568.83L1754.42 568.89ZM1764.32 564.864C1766.72 564.864 1768.95 566.495 1769.84 568.86C1770.74 571.225 1769.74 572.857 1767.34 572.857C1764.94 572.857 1762.7 571.225 1761.81 568.86C1760.92 566.495 1761.92 564.864 1764.32 564.864ZM1763.67 568.86C1764.22 570.327 1765.42 571.345 1766.77 571.345C1768.11 571.345 1768.54 570.327 1767.99 568.86C1767.43 567.393 1766.23 566.376 1764.89 566.376C1763.54 566.376 1763.11 567.393 1763.67 568.86ZM1772.05 572.707L1771.49 571.21H1771.74C1772.65 571.21 1772.79 570.776 1772.46 569.624L1771.12 565.044H1777.12L1780.01 572.677H1778.18L1775.87 566.54H1773.31L1774.23 569.743C1774.85 571.854 1774.34 572.707 1772.55 572.707H1772.05ZM1782.83 564.864C1785.23 564.864 1787.47 566.495 1788.36 568.86C1789.25 571.225 1788.25 572.857 1785.85 572.857C1783.45 572.857 1781.22 571.225 1780.33 568.86C1779.43 566.495 1780.43 564.864 1782.83 564.864ZM1782.18 568.86C1782.74 570.327 1783.94 571.345 1785.28 571.345C1786.63 571.345 1787.06 570.327 1786.5 568.86C1785.95 567.393 1784.75 566.376 1783.4 566.376C1782.06 566.376 1781.63 567.393 1782.18 568.86ZM1791.55 572.677L1788.66 565.044H1794.26L1794.83 566.54H1791.05L1793.37 572.677H1791.55Z" fill="white"/>
</g>
<g id="tarolog">
<g id="Vector_47">
<path d="M1875.5 716.91H1754.68L1710.92 588.45H1824.48L1875.5 716.91Z" fill="#7900C4"/>
<path d="M1824.01 589.145L1874.48 716.215H1755.18L1711.89 589.145H1824.01Z" stroke="white" stroke-opacity="0.25" stroke-width="1.38961"/>
</g>
<path id="&#208;&#162;&#208;&#176;&#209;&#128;&#208;&#190;&#208;&#187;&#208;&#190;&#208;&#179;&#208;&#184;" d="M1757.16 693.786L1756.48 691.984H1766.59L1767.27 693.786H1763.3L1767.09 703.838H1764.95L1761.15 693.786H1757.16ZM1774.34 698.147C1773.96 697.137 1773 696.632 1771.97 696.632C1770.91 696.632 1770.52 697.086 1770.53 697.625H1768.59C1768.33 696.227 1769.2 695.049 1771.45 695.049C1773.7 695.049 1775.62 696.177 1776.37 698.181L1778.51 703.838H1776.6L1776.23 702.862C1775.89 703.62 1775.02 704.041 1773.84 704.041C1772.05 704.041 1770.27 703.03 1769.63 701.346C1768.99 699.646 1770.01 698.635 1772.3 698.635H1774.53L1774.34 698.147ZM1771.68 701.279C1771.97 702.054 1772.78 702.475 1773.69 702.475C1774.92 702.475 1775.71 701.767 1775.27 700.606L1775.08 700.084H1772.99C1771.94 700.084 1771.38 700.504 1771.68 701.279ZM1782.43 695.049C1784.57 695.049 1787.08 696.598 1788.19 699.545C1789.3 702.491 1787.95 704.041 1785.77 704.041C1784.44 704.041 1783.3 703.502 1782.61 702.879L1784.19 707.055H1782.14L1777.68 695.251H1779.66L1780.08 696.362C1780.27 695.672 1780.97 695.049 1782.43 695.049ZM1781.31 699.578C1781.95 701.262 1783.33 702.34 1784.78 702.34C1786.22 702.34 1786.76 701.229 1786.12 699.545C1785.49 697.878 1784.11 696.749 1782.67 696.749C1781.21 696.749 1780.65 697.827 1781.28 699.511L1781.31 699.578ZM1792.44 695.049C1795.14 695.049 1797.65 696.884 1798.66 699.545C1799.66 702.205 1798.54 704.041 1795.84 704.041C1793.14 704.041 1790.63 702.205 1789.62 699.545C1788.62 696.884 1789.74 695.049 1792.44 695.049ZM1791.71 699.545C1792.33 701.195 1793.69 702.34 1795.2 702.34C1796.71 702.34 1797.19 701.195 1796.57 699.545C1795.95 697.895 1794.6 696.749 1793.09 696.749C1791.57 696.749 1791.09 697.895 1791.71 699.545ZM1801.14 703.872L1800.51 702.188H1800.8C1801.82 702.188 1801.98 701.7 1801.6 700.403L1800.1 695.251H1806.85L1810.1 703.838H1808.04L1805.44 696.935H1802.56L1803.59 700.538C1804.29 702.912 1803.72 703.872 1801.7 703.872H1801.14ZM1813.27 695.049C1815.97 695.049 1818.48 696.884 1819.49 699.545C1820.49 702.205 1819.37 704.041 1816.67 704.041C1813.97 704.041 1811.46 702.205 1810.45 699.545C1809.45 696.884 1810.57 695.049 1813.27 695.049ZM1812.54 699.545C1813.16 701.195 1814.52 702.34 1816.03 702.34C1817.54 702.34 1818.02 701.195 1817.4 699.545C1816.78 697.895 1815.43 696.749 1813.92 696.749C1812.4 696.749 1811.92 697.895 1812.54 699.545ZM1823.07 703.838L1819.83 695.251H1826.13L1826.77 696.935H1822.52L1825.13 703.838H1823.07ZM1836.1 695.251L1839.35 703.838H1837.33L1835.18 698.13L1833.18 703.838H1831.2L1827.95 695.251H1829.97L1832.12 700.959L1834.12 695.251H1836.1Z" fill="white"/>
</g>
<g id="peregovornaya">
<path id="Vector_48" d="M945.22 485.85H827.39L833.37 395.12H946.03L945.22 485.85Z" fill="#65B5FF"/>
<path id="&#208;&#159;&#208;&#181;&#209;&#128;&#208;&#181;&#208;&#179;&#208;&#190;&#208;&#178;&#208;&#190;&#209;&#128;&#208;&#189;&#208;&#176;&#209;&#143;" d="M839.917 435.138H847.883L847.367 444.981H845.701L846.139 436.634H841.505L841.067 444.981H839.401L839.917 435.138ZM849.254 441.43C849.375 439.109 850.864 437.683 852.88 437.683C854.84 437.683 856.041 439.067 855.929 441.22L855.894 441.877H850.868L850.867 441.905C850.81 442.982 851.536 443.82 852.684 443.82C853.538 443.82 854.052 443.373 854.181 443.051H855.749C855.519 443.96 854.533 445.149 852.587 445.149C850.473 445.149 849.133 443.737 849.254 441.43ZM850.945 440.675H854.375C854.373 439.64 853.79 439.011 852.796 439.011C851.788 439.011 851.097 439.654 850.945 440.675ZM861.387 437.683C863.053 437.683 864.484 438.969 864.356 441.416C864.227 443.862 862.648 445.149 860.954 445.149C859.918 445.149 859.213 444.701 858.891 444.184L858.709 447.651H857.113L857.627 437.851H859.167L859.118 438.773C859.498 438.2 860.253 437.683 861.387 437.683ZM858.992 441.444C858.919 442.842 859.628 443.737 860.762 443.737C861.882 443.737 862.672 442.814 862.746 441.416C862.818 440.032 862.125 439.095 861.005 439.095C859.871 439.095 859.068 439.99 858.995 441.388L858.992 441.444ZM865.468 441.43C865.59 439.109 867.079 437.683 869.095 437.683C871.055 437.683 872.256 439.067 872.143 441.22L872.109 441.877H867.083L867.082 441.905C867.025 442.982 867.751 443.82 868.899 443.82C869.753 443.82 870.267 443.373 870.395 443.051H871.963C871.734 443.96 870.748 445.149 868.802 445.149C866.688 445.149 865.348 443.737 865.468 441.43ZM867.16 440.675H870.59C870.588 439.64 870.005 439.011 869.011 439.011C868.003 439.011 867.312 439.654 867.16 440.675ZM873.468 444.981L873.841 437.851H878.741L878.668 439.249H875.364L875.064 444.981H873.468ZM883.001 437.683C885.101 437.683 886.435 439.207 886.319 441.416C886.204 443.625 884.71 445.149 882.61 445.149C880.51 445.149 879.176 443.625 879.291 441.416C879.407 439.207 880.901 437.683 883.001 437.683ZM880.915 441.416C880.844 442.786 881.508 443.737 882.684 443.737C883.86 443.737 884.624 442.786 884.695 441.416C884.767 440.046 884.103 439.095 882.927 439.095C881.751 439.095 880.987 440.046 880.915 441.416ZM887.659 444.981L888.033 437.851H891.239C892.835 437.851 893.548 438.661 893.494 439.696C893.451 440.521 892.948 441.024 892.42 441.22C893.083 441.402 893.669 441.975 893.617 442.954C893.557 444.1 892.629 444.981 891.005 444.981H887.659ZM889.292 443.751H890.874C891.602 443.751 891.998 443.401 892.028 442.828C892.058 442.255 891.697 441.933 890.969 441.933H889.387L889.292 443.751ZM889.45 440.731H890.892C891.522 440.731 891.889 440.409 891.916 439.892C891.944 439.361 891.622 439.081 890.978 439.081H889.536L889.45 440.731ZM898.532 437.683C900.632 437.683 901.966 439.207 901.851 441.416C901.735 443.625 900.241 445.149 898.141 445.149C896.041 445.149 894.707 443.625 894.823 441.416C894.938 439.207 896.432 437.683 898.532 437.683ZM896.447 441.416C896.375 442.786 897.039 443.737 898.215 443.737C899.391 443.737 900.155 442.786 900.227 441.416C900.299 440.046 899.634 439.095 898.458 439.095C897.282 439.095 896.519 440.046 896.447 441.416ZM907.325 437.683C908.991 437.683 910.421 438.969 910.293 441.416C910.165 443.862 908.586 445.149 906.892 445.149C905.856 445.149 905.151 444.701 904.828 444.184L904.646 447.651H903.05L903.564 437.851H905.104L905.056 438.773C905.436 438.2 906.191 437.683 907.325 437.683ZM904.93 441.444C904.856 442.842 905.566 443.737 906.7 443.737C907.82 443.737 908.61 442.814 908.683 441.416C908.756 440.032 908.063 439.095 906.943 439.095C905.809 439.095 905.006 439.99 904.933 441.388L904.93 441.444ZM913.222 444.981H911.626L912 437.851H913.596L913.452 440.591H916.518L916.662 437.851H918.258L917.884 444.981H916.288L916.444 442.003H913.378L913.222 444.981ZM924.249 440.255C924.293 439.416 923.713 438.997 922.915 438.997C922.089 438.997 921.635 439.375 921.458 439.822H919.946C920.217 438.661 921.29 437.683 923.04 437.683C924.79 437.683 925.903 438.62 925.816 440.283L925.569 444.981H924.085L924.128 444.17C923.605 444.799 922.789 445.149 921.865 445.149C920.479 445.149 919.43 444.31 919.504 442.912C919.578 441.5 920.714 440.661 922.492 440.661H924.228L924.249 440.255ZM921.117 442.856C921.083 443.499 921.569 443.848 922.283 443.848C923.235 443.848 924.091 443.261 924.142 442.296L924.165 441.863H922.541C921.729 441.863 921.15 442.213 921.117 442.856ZM926.772 444.981L928.726 442.422C927.851 442.031 927.375 441.22 927.426 440.255C927.496 438.913 928.462 437.851 930.184 437.851H933.236L932.862 444.981H931.28L931.401 442.674H930.323L928.564 444.981H926.772ZM929.007 440.269C928.973 440.926 929.411 441.388 930.195 441.388H931.469L931.586 439.151H930.312C929.542 439.151 929.042 439.612 929.007 440.269Z" fill="white"/>
</g>
<g id="advanced-fitness">
<g id="Vector_49">
<path d="M946.52 340.3H829.51L838.72 208.16H947.7L946.52 340.3Z" fill="#9E01FF"/>
<path d="M947.195 208.66L946.024 339.8H830.046L839.186 208.66H947.195Z" stroke="white" stroke-opacity="0.25"/>
</g>
<path id="&#208;&#153;&#208;&#190;&#208;&#179;&#208;&#176; &#209;&#129; &#208;&#178;&#208;&#184;&#208;&#189;&#208;&#190;&#208;&#188;" d="M858.692 219.315L857.587 231.939H855.481L856.289 222.704L849.325 231.939H847.201L848.306 219.315H850.43L849.622 228.55L856.586 219.315H858.692ZM850.747 215.281H852.421C852.35 216.088 852.794 216.769 853.73 216.769C854.666 216.769 855.23 216.088 855.301 215.281H856.975C856.786 217.02 855.457 218.222 853.603 218.222C851.749 218.222 850.63 217.02 850.747 215.281ZM865.124 222.579C867.824 222.579 869.471 224.533 869.223 227.367C868.976 230.2 866.987 232.154 864.287 232.154C861.587 232.154 859.94 230.2 860.187 227.367C860.435 224.533 862.424 222.579 865.124 222.579ZM862.275 227.367C862.122 229.124 862.933 230.343 864.445 230.343C865.957 230.343 866.982 229.124 867.135 227.367C867.289 225.609 866.478 224.39 864.966 224.39C863.454 224.39 862.429 225.609 862.275 227.367ZM870.786 231.939L871.586 222.794H877.886L877.729 224.587H873.481L872.838 231.939H870.786ZM884.644 225.878C884.738 224.802 884.011 224.264 882.985 224.264C881.923 224.264 881.322 224.749 881.074 225.322H879.13C879.53 223.834 880.954 222.579 883.204 222.579C885.454 222.579 886.843 223.78 886.656 225.914L886.129 231.939H884.221L884.312 230.899C883.612 231.706 882.546 232.154 881.358 232.154C879.576 232.154 878.267 231.078 878.423 229.285C878.582 227.474 880.08 226.398 882.366 226.398H884.598L884.644 225.878ZM880.5 229.214C880.428 230.038 881.036 230.487 881.954 230.487C883.178 230.487 884.306 229.734 884.415 228.496L884.463 227.94H882.375C881.331 227.94 880.572 228.389 880.5 229.214ZM849.498 248.275C850.812 248.275 851.442 247.45 851.683 246.751H853.681C853.326 248.544 851.68 250.086 849.322 250.086C846.622 250.086 845.051 248.077 845.294 245.298C845.534 242.555 847.441 240.51 850.159 240.51C852.643 240.51 853.847 242.178 853.921 243.81H851.923C851.766 243.128 851.261 242.321 850.001 242.321C848.543 242.321 847.536 243.541 847.382 245.298C847.226 247.091 848.058 248.275 849.498 248.275ZM859.215 249.871L860.015 240.726H864.137C866.189 240.726 867.07 241.766 866.954 243.093C866.862 244.15 866.193 244.796 865.505 245.047C866.349 245.28 867.077 246.015 866.967 247.271C866.838 248.741 865.605 249.871 863.517 249.871H859.215ZM861.369 248.293H863.403C864.339 248.293 864.865 247.844 864.929 247.109C864.993 246.374 864.543 245.962 863.607 245.962H861.573L861.369 248.293ZM861.708 244.419H863.562C864.372 244.419 864.858 244.007 864.916 243.344C864.976 242.662 864.575 242.304 863.747 242.304H861.893L861.708 244.419ZM877.662 240.726L876.861 249.871H874.845L875.377 243.792L870.687 249.871H868.707L869.508 240.726H871.524L870.992 246.804L875.682 240.726H877.662ZM881.394 249.871H879.342L880.142 240.726H882.194L881.887 244.24H885.829L886.136 240.726H888.188L887.388 249.871H885.336L885.67 246.051H881.728L881.394 249.871ZM894.686 240.51C897.386 240.51 899.033 242.465 898.786 245.298C898.538 248.131 896.549 250.086 893.849 250.086C891.149 250.086 889.502 248.131 889.75 245.298C889.997 242.465 891.986 240.51 894.686 240.51ZM891.838 245.298C891.684 247.055 892.495 248.275 894.007 248.275C895.519 248.275 896.544 247.055 896.698 245.298C896.851 243.541 896.04 242.321 894.528 242.321C893.016 242.321 891.991 243.541 891.838 245.298ZM901.148 240.726H903.74L906.076 247.36L909.572 240.726H912.128L911.328 249.871H909.348L909.897 243.595L906.597 249.835H905.085L902.874 243.63L902.328 249.871H900.348L901.148 240.726Z" fill="white"/>
</g>
<g id="galki">
<g id="Vector_50">
<path d="M1355.09 956.23H1076.86L1070.43 812.03H1333L1355.09 956.23Z" fill="#FF9100"/>
<path d="M1332.57 812.53L1354.51 955.73H1077.34L1070.95 812.53H1332.57Z" stroke="white" stroke-opacity="0.25"/>
</g>
<path id="&#208;&#147;&#208;&#176;&#208;&#187;&#208;&#186;&#208;&#184;, &#208;&#165;&#208;&#176;&#209;&#131;&#209;&#129; &#208;&#184; &#208;&#163;&#208;&#183;&#208;&#190;&#209;&#128;&#209;&#139;" d="M1109.25 878.659H1101.31L1102.06 892.967H1099.2L1098.32 876.094H1109.12L1109.25 878.659ZM1116.16 884.866C1116.09 883.428 1115.02 882.709 1113.65 882.709C1112.23 882.709 1111.52 883.356 1111.3 884.123H1108.71C1108.96 882.134 1110.63 880.456 1113.63 880.456C1116.63 880.456 1118.7 882.062 1118.85 884.914L1119.28 892.967H1116.73L1116.66 891.577C1115.88 892.656 1114.54 893.255 1112.96 893.255C1110.58 893.255 1108.63 891.817 1108.51 889.42C1108.38 886.999 1110.18 885.561 1113.22 885.561H1116.2L1116.16 884.866ZM1111.26 889.324C1111.32 890.427 1112.21 891.026 1113.44 891.026C1115.07 891.026 1116.43 890.019 1116.35 888.365L1116.31 887.622H1113.52C1112.13 887.622 1111.2 888.222 1111.26 889.324ZM1121.2 893.015L1121.07 890.618H1121.46C1122.82 890.618 1123.24 889.923 1123.29 888.078L1123.51 880.744H1132.51L1133.15 892.967H1130.41L1129.9 883.141H1126.06L1125.89 888.27C1125.81 891.649 1124.63 893.015 1121.94 893.015H1121.2ZM1139.22 892.967H1136.48L1135.84 880.744H1138.58L1138.84 885.825L1143.28 880.744H1146.52L1141.54 886.448L1147.23 892.967H1143.92L1138.92 887.263L1139.22 892.967ZM1159.37 880.744L1160.01 892.967H1157.32L1156.9 884.842L1151.78 892.967H1149.14L1148.5 880.744H1151.19L1151.61 888.869L1156.73 880.744H1159.37ZM1166.7 891.577C1166.72 892.008 1166.65 892.416 1166.53 892.823L1165.22 896.802H1163.14L1164.31 893.039C1163.72 892.823 1163.14 892.344 1163.1 891.481C1163.04 890.498 1163.75 889.779 1164.78 889.779C1165.79 889.779 1166.65 890.546 1166.7 891.577ZM1173.32 892.967L1178.59 884.459L1172.49 876.094H1175.78L1180.33 882.398L1184.2 876.094H1187.42L1182.19 884.531L1188.35 892.967H1185.04L1180.45 886.592L1176.59 892.967H1173.32ZM1197.23 884.866C1197.16 883.428 1196.09 882.709 1194.72 882.709C1193.3 882.709 1192.59 883.356 1192.37 884.123H1189.78C1190.03 882.134 1191.7 880.456 1194.7 880.456C1197.7 880.456 1199.77 882.062 1199.92 884.914L1200.35 892.967H1197.8L1197.73 891.577C1196.95 892.656 1195.61 893.255 1194.03 893.255C1191.65 893.255 1189.7 891.817 1189.58 889.42C1189.45 886.999 1191.25 885.561 1194.29 885.561H1197.27L1197.23 884.866ZM1192.33 889.324C1192.39 890.427 1193.28 891.026 1194.51 891.026C1196.14 891.026 1197.5 890.019 1197.42 888.365L1197.38 887.622H1194.59C1193.2 887.622 1192.27 888.222 1192.33 889.324ZM1210.61 880.744H1213.56L1207.84 897.545H1204.91L1206.55 892.727L1201.22 880.744H1204.17L1207.85 889.492L1210.61 880.744ZM1220.99 890.834C1222.74 890.834 1223.42 889.732 1223.62 888.797H1226.28C1226.14 891.194 1224.23 893.255 1221.09 893.255C1217.49 893.255 1215.02 890.57 1214.83 886.855C1214.63 883.189 1216.79 880.456 1220.42 880.456C1223.73 880.456 1225.65 882.685 1226.05 884.866H1223.39C1223.05 883.955 1222.22 882.877 1220.54 882.877C1218.6 882.877 1217.49 884.507 1217.61 886.855C1217.74 889.252 1219.07 890.834 1220.99 890.834ZM1244.47 880.744L1245.11 892.967H1242.42L1242 884.842L1236.88 892.967H1234.24L1233.6 880.744H1236.29L1236.71 888.869L1241.83 880.744H1244.47ZM1251.51 876.094H1254.61L1259.7 885.274L1263.51 876.094H1266.54L1259.41 892.967H1256.36L1258.37 888.246L1251.51 876.094ZM1266.77 884.171C1266.9 881.751 1269.04 880.456 1271.64 880.456C1274.2 880.456 1276.22 881.822 1276.33 883.955C1276.41 885.465 1275.54 886.256 1274.69 886.616C1275.64 886.832 1277 887.622 1277.1 889.444C1277.22 891.721 1275.23 893.255 1272.26 893.255C1269.43 893.255 1267.26 891.841 1266.82 889.372H1269.49C1269.81 890.427 1270.82 891.002 1272.14 891.002C1273.53 891.002 1274.41 890.403 1274.36 889.324C1274.3 888.317 1273.49 887.838 1272 887.838H1270.2L1270.08 885.681H1271.74C1273.01 885.681 1273.7 885.13 1273.65 884.171C1273.6 883.236 1272.79 882.709 1271.61 882.709C1270.31 882.709 1269.55 883.332 1269.38 884.171H1266.77ZM1284.59 880.456C1288.19 880.456 1290.75 883.069 1290.95 886.855C1291.15 890.642 1288.86 893.255 1285.26 893.255C1281.66 893.255 1279.1 890.642 1278.9 886.855C1278.71 883.069 1280.99 880.456 1284.59 880.456ZM1281.69 886.855C1281.81 889.204 1283.12 890.834 1285.14 890.834C1287.15 890.834 1288.29 889.204 1288.17 886.855C1288.04 884.507 1286.74 882.877 1284.72 882.877C1282.7 882.877 1281.56 884.507 1281.69 886.855ZM1299.66 880.456C1302.52 880.456 1305.2 882.661 1305.42 886.855C1305.64 891.05 1303.17 893.255 1300.26 893.255C1298.49 893.255 1297.2 892.488 1296.55 891.601L1296.86 897.545H1294.13L1293.25 880.744H1295.89L1295.97 882.326C1296.52 881.343 1297.72 880.456 1299.66 880.456ZM1296.23 886.903C1296.36 889.3 1297.74 890.834 1299.68 890.834C1301.6 890.834 1302.79 889.252 1302.66 886.855C1302.54 884.483 1301.18 882.877 1299.26 882.877C1297.32 882.877 1296.1 884.411 1296.23 886.808L1296.23 886.903ZM1321.63 880.744L1322.27 892.967H1319.56L1318.92 880.744H1321.63ZM1308.35 892.967L1307.71 880.744H1310.42L1310.62 884.459H1313.06C1315.82 884.459 1317.65 886.256 1317.77 888.677C1317.9 891.122 1316.25 892.967 1313.51 892.967H1308.35ZM1310.94 890.69H1313.05C1314.4 890.69 1315.12 889.803 1315.06 888.677C1315 887.551 1314.19 886.76 1312.85 886.76H1310.74L1310.94 890.69Z" fill="white"/>
</g>
<g id="blinberi">
<g id="Vector_51">
<path d="M1667.31 958H1784L1763.42 897H1652L1667.31 958Z" fill="#FF9100"/>
<path d="M1652.64 897.5H1763.06L1783.3 957.5H1667.7L1652.64 897.5Z" stroke="white" stroke-opacity="0.25"/>
</g>
<path id="&#208;&#160;&#208;&#181;&#208;&#178;&#208;&#181;&#208;&#187;&#209;&#130;&#208;&#176;&#208;&#185;&#208;&#188;" d="M1680.46 922.615C1682.95 922.615 1684.71 924.205 1685.17 926.2C1685.63 928.18 1684.55 929.802 1682.16 929.802H1679.92L1680.8 933.59H1678.9L1676.36 922.615H1680.46ZM1679.55 928.18H1681.55C1682.91 928.18 1683.5 927.354 1683.24 926.2C1682.97 925.047 1682.04 924.252 1680.64 924.252H1678.64L1679.55 928.18ZM1687 929.63C1686.4 927.042 1687.65 925.452 1689.95 925.452C1692.19 925.452 1694 926.995 1694.56 929.396L1694.73 930.129H1688.98L1688.99 930.16C1689.27 931.361 1690.36 932.296 1691.68 932.296C1692.65 932.296 1693.1 931.797 1693.14 931.439H1694.93C1694.96 932.452 1694.21 933.777 1691.99 933.777C1689.57 933.777 1687.59 932.202 1687 929.63ZM1688.69 928.788H1692.61C1692.28 927.635 1691.41 926.933 1690.28 926.933C1689.13 926.933 1688.54 927.65 1688.69 928.788ZM1697.27 933.59L1695.43 925.639H1699.09C1700.92 925.639 1701.99 926.543 1702.26 927.697C1702.47 928.617 1702.06 929.178 1701.51 929.396C1702.33 929.599 1703.18 930.238 1703.43 931.329C1703.73 932.608 1702.95 933.59 1701.09 933.59H1697.27ZM1698.74 932.218H1700.55C1701.38 932.218 1701.72 931.828 1701.58 931.189C1701.43 930.55 1700.91 930.191 1700.08 930.191H1698.27L1698.74 932.218ZM1697.96 928.851H1699.61C1700.33 928.851 1700.65 928.492 1700.52 927.915C1700.38 927.323 1699.92 927.011 1699.19 927.011H1697.54L1697.96 928.851ZM1704.33 929.63C1703.73 927.042 1704.98 925.452 1707.28 925.452C1709.52 925.452 1711.33 926.995 1711.89 929.396L1712.06 930.129H1706.31L1706.32 930.16C1706.6 931.361 1707.69 932.296 1709 932.296C1709.98 932.296 1710.43 931.797 1710.47 931.439H1712.26C1712.29 932.452 1711.54 933.777 1709.31 933.777C1706.9 933.777 1704.92 932.202 1704.33 929.63ZM1706.02 928.788H1709.94C1709.61 927.635 1708.74 926.933 1707.61 926.933C1706.45 926.933 1705.87 927.65 1706.02 928.788ZM1713.67 933.621L1713.31 932.062H1713.57C1714.48 932.062 1714.68 931.61 1714.5 930.41L1713.8 925.639H1719.8L1721.64 933.59H1719.81L1718.34 927.198H1715.78L1716.26 930.534C1716.59 932.732 1715.96 933.621 1714.17 933.621H1713.67ZM1721.74 927.198L1721.38 925.639H1728.42L1728.78 927.198H1726.18L1727.65 933.59H1725.83L1724.35 927.198H1721.74ZM1735.24 928.321C1735.02 927.385 1734.23 926.917 1733.32 926.917C1732.37 926.917 1731.97 927.338 1731.91 927.837H1730.18C1730.13 926.543 1731.04 925.452 1733.04 925.452C1735.04 925.452 1736.61 926.497 1737.04 928.352L1738.25 933.59H1736.55L1736.34 932.686C1735.95 933.387 1735.12 933.777 1734.07 933.777C1732.48 933.777 1731.02 932.842 1730.66 931.283C1730.3 929.708 1731.33 928.773 1733.36 928.773H1735.34L1735.24 928.321ZM1732.48 931.22C1732.65 931.937 1733.32 932.327 1734.13 932.327C1735.22 932.327 1736.01 931.672 1735.76 930.597L1735.65 930.113H1733.8C1732.87 930.113 1732.32 930.503 1732.48 931.22ZM1745.8 925.639L1747.64 933.59H1745.85L1744.63 928.305L1742.15 933.59H1740.39L1738.56 925.639H1740.35L1741.57 930.924L1744.04 925.639H1745.8ZM1738.65 922.038H1740.12C1740.29 922.739 1740.84 923.347 1741.66 923.347C1742.47 923.347 1742.75 922.739 1742.59 922.038H1744.06C1744.38 923.581 1743.58 924.61 1741.95 924.61C1740.32 924.61 1739.04 923.581 1738.65 922.038ZM1748.01 925.639H1750.31L1754.24 931.407L1755.5 925.639H1757.77L1759.6 933.59H1757.84L1756.58 928.133L1755.39 933.559H1754.04L1750.35 928.165L1751.6 933.59H1749.84L1748.01 925.639Z" fill="white"/>
</g>
<g id="pyan-se">
<g id="Vector_52">
<path d="M1704.84 885H1760.5L1731.07 798.199H1679L1704.84 885Z" fill="#FF9100"/>
<path d="M1679.89 798.862H1730.59L1759.58 884.337H1705.34L1679.89 798.862Z" stroke="white" stroke-opacity="0.25" stroke-width="1.3252"/>
</g>
<path id="&#208;&#159;&#209;&#143;&#208;&#189;-&#209;&#129;&#208;&#181;" d="M1717.46 809.749L1721.2 821.217L1706.28 821.503L1705.5 819.105L1718.15 818.862L1715.97 812.191L1703.32 812.434L1702.53 810.035L1717.46 809.749ZM1706.95 823.568L1711.69 826.113C1711.86 824.812 1712.85 824.043 1714.31 824.015C1716.35 823.976 1718.39 825.255 1719.2 827.734L1720.63 832.127L1709.82 832.335L1709.08 830.057L1712.57 829.99L1712.07 828.438L1707.8 826.148L1706.95 823.568ZM1715.03 826.293C1714.04 826.312 1713.56 826.99 1713.92 828.119L1714.52 829.953L1717.92 829.888L1717.32 828.054C1716.95 826.945 1716.03 826.273 1715.03 826.293ZM1711.48 837.422L1710.73 835.124L1721.54 834.916L1722.29 837.214L1718.14 837.294L1719.58 841.708L1723.74 841.628L1724.49 843.925L1713.68 844.133L1712.93 841.835L1717.44 841.749L1716 837.335L1711.48 837.422ZM1719.15 846.582L1721.37 846.54L1723.47 852.949L1721.24 852.991L1719.15 846.582ZM1720.82 860.167C1721.3 861.639 1722.48 862.245 1723.37 862.43L1724.1 864.667C1721.91 864.486 1719.53 862.828 1718.67 860.188C1717.68 857.165 1719.41 855.165 1722.7 855.102C1725.94 855.039 1728.99 856.928 1729.99 859.971C1730.9 862.752 1729.42 864.302 1727.57 864.581L1726.84 862.343C1727.56 862.086 1728.31 861.423 1727.85 860.012C1727.31 858.38 1725.54 857.4 1723.46 857.439C1721.34 857.48 1720.29 858.555 1720.82 860.167ZM1726.29 866.163C1729.81 866.096 1732.64 868.09 1733.59 870.992C1734.51 873.813 1733.01 875.688 1729.75 875.75L1728.75 875.769L1726.39 868.534L1726.34 868.535C1724.71 868.566 1723.8 869.699 1724.34 871.352C1724.74 872.581 1725.65 873.274 1726.19 873.425L1726.93 875.683C1725.47 875.447 1723.23 874.152 1722.32 871.35C1721.32 868.307 1722.8 866.23 1726.29 866.163ZM1728.22 868.519L1729.83 873.457C1731.37 873.346 1732.04 872.441 1731.57 871.01C1731.1 869.559 1729.81 868.631 1728.22 868.519Z" fill="white"/>
</g>
<g id="garderob-dlya-gostei">
<path id="Vector_53" d="M319.55 957.53L192.87 956.23L302.85 593.65L396.41 652.13L319.55 957.53Z" fill="#65B5FF"/>
<path id="&#208;&#147;&#208;&#176;&#209;&#128;&#208;&#180;&#208;&#181;&#209;&#128;&#208;&#190;&#208;&#177; &#208;&#180;&#208;&#187;&#209;&#143; &#208;&#179;&#208;&#190;&#209;&#129;&#209;&#130;&#208;&#181;&#208;&#185;" d="M273.539 772.007H267.581L264.8 782.387H262.658L265.937 770.146H274.037L273.539 772.007ZM277.273 776.51C277.553 775.467 276.919 774.945 275.893 774.945C274.831 774.945 274.147 775.415 273.8 775.971H271.856C272.512 774.528 274.153 773.311 276.403 773.311C278.653 773.311 279.834 774.476 279.28 776.545L277.715 782.387H275.807L276.077 781.378C275.237 782.161 274.095 782.595 272.907 782.595C271.125 782.595 270 781.552 270.466 779.813C270.937 778.057 272.62 777.014 274.906 777.014H277.138L277.273 776.51ZM272.555 779.744C272.34 780.544 272.872 780.978 273.79 780.978C275.014 780.978 276.272 780.248 276.593 779.048L276.738 778.509H274.65C273.606 778.509 272.769 778.944 272.555 779.744ZM287.381 773.311C289.523 773.311 291.021 774.91 290.205 777.953C289.39 780.996 287.017 782.595 284.839 782.595C283.507 782.595 282.72 782.039 282.443 781.396L281.287 785.708H279.235L282.501 773.519H284.481L284.174 774.667C284.815 773.954 285.923 773.311 287.381 773.311ZM283.302 777.988C282.836 779.727 283.51 780.839 284.968 780.839C286.408 780.839 287.669 779.692 288.135 777.953C288.596 776.232 287.955 775.067 286.515 775.067C285.057 775.067 283.786 776.18 283.321 777.918L283.302 777.988ZM300.782 780.648L299.72 784.612H297.74L298.336 782.387H291.856L291.26 784.612H289.28L290.342 780.648H291.08C291.78 780.318 292.375 779.24 292.847 777.884L294.358 773.519H301.36L299.45 780.648H300.782ZM293.294 780.648H297.398L298.842 775.258H295.71L294.772 777.953C294.388 779.048 294.015 780.039 293.294 780.648ZM302.706 777.97C303.48 775.084 305.773 773.311 308.365 773.311C310.885 773.311 312.062 775.032 311.344 777.71L311.125 778.527H304.663L304.654 778.562C304.295 779.9 305.006 780.944 306.482 780.944C307.58 780.944 308.359 780.387 308.61 779.987H310.626C310.089 781.117 308.505 782.595 306.003 782.595C303.285 782.595 301.938 780.839 302.706 777.97ZM305.082 777.032H309.492C309.765 775.745 309.182 774.963 307.904 774.963C306.608 774.963 305.548 775.762 305.082 777.032ZM319.303 773.311C321.445 773.311 322.942 774.91 322.127 777.953C321.312 780.996 318.939 782.595 316.761 782.595C315.429 782.595 314.642 782.039 314.365 781.396L313.209 785.708H311.157L314.423 773.519H316.403L316.096 774.667C316.737 773.954 317.845 773.311 319.303 773.311ZM315.224 777.988C314.758 779.727 315.432 780.839 316.89 780.839C318.33 780.839 319.591 779.692 320.057 777.953C320.518 776.232 319.876 775.067 318.436 775.067C316.978 775.067 315.708 776.18 315.242 777.918L315.224 777.988ZM329.321 773.311C332.021 773.311 333.331 775.206 332.595 777.953C331.859 780.7 329.533 782.595 326.833 782.595C324.133 782.595 322.823 780.7 323.559 777.953C324.295 775.206 326.621 773.311 329.321 773.311ZM325.647 777.953C325.19 779.657 325.791 780.839 327.303 780.839C328.815 780.839 330.05 779.657 330.507 777.953C330.963 776.249 330.362 775.067 328.85 775.067C327.338 775.067 326.103 776.249 325.647 777.953ZM340.425 773.589C342.801 773.589 344.081 775.258 343.336 778.04C342.665 780.544 340.405 782.595 337.687 782.595C334.735 782.595 333.476 780.578 334.408 777.101C335.526 772.928 337.323 770.79 340.811 770.199L344.714 769.538L344.23 771.346L340.665 771.885C338.637 772.198 337.621 773.172 336.924 775.032C337.864 774.076 339.075 773.589 340.425 773.589ZM336.307 778.005C335.851 779.709 336.493 780.874 338.041 780.874C339.589 780.874 340.815 779.657 341.248 778.04C341.677 776.44 341.071 775.276 339.559 775.276C338.083 775.276 336.759 776.319 336.307 778.005ZM266.423 802.864L265.36 806.828H263.38L263.977 804.603H257.497L256.9 806.828H254.92L255.983 802.864H256.721C257.421 802.534 258.016 801.456 258.487 800.1L259.999 795.736H267.001L265.091 802.864H266.423ZM258.935 802.864H263.039L264.483 797.474H261.351L260.413 800.169C260.029 801.265 259.656 802.256 258.935 802.864ZM266.898 804.638L267.364 802.899H267.652C268.678 802.899 269.155 802.395 269.622 801.056L271.497 795.736H278.247L275.871 804.603H273.819L275.73 797.474H272.85L271.529 801.195C270.674 803.647 269.472 804.638 267.456 804.638H266.898ZM277.51 804.603L280.702 801.421C279.681 800.934 279.285 799.926 279.606 798.726C280.053 797.057 281.578 795.736 283.792 795.736H287.716L285.34 804.603H283.306L284.074 801.734H282.688L279.814 804.603H277.51ZM281.636 798.744C281.417 799.561 281.857 800.135 282.865 800.135H284.503L285.248 797.353H283.61C282.62 797.353 281.855 797.926 281.636 798.744ZM250.536 826.819L252.912 817.952H259.212L258.746 819.691H254.498L252.588 826.819H250.536ZM264.733 817.743C267.433 817.743 268.744 819.639 268.007 822.386C267.271 825.133 264.946 827.028 262.246 827.028C259.546 827.028 258.235 825.133 258.971 822.386C259.708 819.639 262.033 817.743 264.733 817.743ZM261.059 822.386C260.603 824.09 261.204 825.272 262.716 825.272C264.228 825.272 265.463 824.09 265.919 822.386C266.376 820.682 265.775 819.499 264.263 819.499C262.751 819.499 261.516 820.682 261.059 822.386ZM273.139 825.272C274.453 825.272 275.225 824.472 275.587 823.794H277.585C276.921 825.533 275.008 827.028 272.65 827.028C269.95 827.028 268.726 825.081 269.448 822.386C270.161 819.725 272.42 817.743 275.138 817.743C277.622 817.743 278.539 819.36 278.331 820.943H276.333C276.294 820.282 275.927 819.499 274.667 819.499C273.209 819.499 271.993 820.682 271.536 822.386C271.07 824.124 271.699 825.272 273.139 825.272ZM279.675 819.691L280.141 817.952H288.061L287.595 819.691H284.661L282.751 826.819H280.699L282.609 819.691H279.675ZM287.76 822.403C288.533 819.517 290.826 817.743 293.418 817.743C295.938 817.743 297.115 819.465 296.398 822.142L296.179 822.959H289.717L289.707 822.994C289.349 824.333 290.059 825.376 291.535 825.376C292.633 825.376 293.412 824.82 293.663 824.42H295.679C295.143 825.55 293.559 827.028 291.057 827.028C288.339 827.028 286.991 825.272 287.76 822.403ZM290.135 821.464H294.545C294.818 820.178 294.236 819.395 292.958 819.395C291.662 819.395 290.601 820.195 290.135 821.464ZM307.63 817.952L305.254 826.819H303.238L304.818 820.925L299.08 826.819H297.1L299.476 817.952H301.492L299.913 823.846L305.65 817.952H307.63ZM301.597 813.936H303.253C303.043 814.718 303.329 815.396 304.247 815.396C305.165 815.396 305.815 814.718 306.025 813.936H307.681C307.183 815.657 305.706 816.805 303.87 816.805C302.034 816.805 301.171 815.657 301.597 813.936Z" fill="white"/>
</g>
<g id="karaoke">
<g id="Vector_54">
<path d="M462.09 815.85H363.73L402.9 656.27L484.98 706.31L462.09 815.85Z" fill="#9E01FF"/>
<path d="M484.419 706.553L461.684 815.35H364.368L403.223 657.052L484.419 706.553Z" stroke="white" stroke-opacity="0.25"/>
</g>
<path id="&#208;&#154;&#208;&#176;&#209;&#128;&#208;&#176;&#208;&#190;&#208;&#186;&#208;&#181;" d="M391.978 765.303H389.836L393.329 753.122H395.471L393.963 758.382L400.547 753.122H403.157L395.941 758.953L399.772 765.303H397.072L393.586 759.697L391.978 765.303ZM408.105 759.454C408.403 758.416 407.778 757.897 406.752 757.897C405.69 757.897 404.998 758.364 404.641 758.918H402.697C403.379 757.482 405.04 756.271 407.29 756.271C409.54 756.271 410.702 757.43 410.111 759.489L408.444 765.303H406.536L406.824 764.299C405.971 765.078 404.821 765.51 403.633 765.51C401.851 765.51 400.744 764.472 401.24 762.742C401.742 760.994 403.443 759.956 405.729 759.956H407.961L408.105 759.454ZM403.33 762.673C403.102 763.469 403.626 763.901 404.544 763.901C405.768 763.901 407.038 763.174 407.381 761.981L407.535 761.444H405.447C404.403 761.444 403.559 761.877 403.33 762.673ZM418.269 756.271C420.411 756.271 421.88 757.863 421.012 760.891C420.144 763.918 417.743 765.51 415.565 765.51C414.233 765.51 413.456 764.957 413.19 764.316L411.959 768.608H409.907L413.385 756.478H415.365L415.038 757.62C415.691 756.911 416.811 756.271 418.269 756.271ZM414.108 760.925C413.612 762.655 414.266 763.763 415.724 763.763C417.164 763.763 418.446 762.621 418.942 760.891C419.433 759.178 418.812 758.018 417.372 758.018C415.914 758.018 414.624 759.126 414.128 760.856L414.108 760.925ZM428.759 759.454C429.057 758.416 428.432 757.897 427.406 757.897C426.344 757.897 425.652 758.364 425.295 758.918H423.351C424.033 757.482 425.694 756.271 427.944 756.271C430.194 756.271 431.356 757.43 430.766 759.489L429.098 765.303H427.19L427.478 764.299C426.625 765.078 425.475 765.51 424.287 765.51C422.505 765.51 421.399 764.472 421.895 762.742C422.396 760.994 424.098 759.956 426.384 759.956H428.616L428.759 759.454ZM423.985 762.673C423.756 763.469 424.28 763.901 425.198 763.901C426.422 763.901 427.693 763.174 428.035 761.981L428.189 761.444H426.101C425.057 761.444 424.213 761.877 423.985 762.673ZM438.095 756.271C440.795 756.271 442.072 758.157 441.288 760.891C440.504 763.624 438.146 765.51 435.446 765.51C432.746 765.51 431.468 763.624 432.252 760.891C433.036 758.157 435.395 756.271 438.095 756.271ZM434.34 760.891C433.854 762.586 434.435 763.763 435.947 763.763C437.459 763.763 438.714 762.586 439.2 760.891C439.686 759.195 439.106 758.018 437.594 758.018C436.082 758.018 434.826 759.195 434.34 760.891ZM444.038 765.303H441.986L444.516 756.478H446.568L445.516 760.147L450.096 756.478H452.526L447.385 760.596L450.05 765.303H447.566L445.218 761.185L444.038 765.303ZM451.777 760.908C452.6 758.036 454.924 756.271 457.516 756.271C460.036 756.271 461.183 757.984 460.419 760.648L460.186 761.462H453.724L453.714 761.496C453.332 762.828 454.024 763.867 455.5 763.867C456.598 763.867 457.387 763.313 457.645 762.915H459.661C459.105 764.04 457.495 765.51 454.993 765.51C452.275 765.51 450.958 763.763 451.777 760.908ZM454.168 759.973H458.578C458.874 758.693 458.305 757.914 457.027 757.914C455.731 757.914 454.657 758.71 454.168 759.973Z" fill="white"/>
</g>
<g id="glitter-things-beauty">
<g id="Vector_55">
<path d="M436.17 481.11L544.83 481.12L514.47 633.21L412.83 572.54L436.17 481.11Z" fill="#9E01FF"/>
<path d="M413.407 572.302L436.558 481.61L544.22 481.62L514.118 632.418L413.407 572.302Z" stroke="white" stroke-opacity="0.25"/>
</g>
<path id="&#208;&#145;&#209;&#140;&#209;&#142;&#209;&#130;&#208;&#184;-&#208;&#183;&#208;&#190;&#208;&#189;&#208;&#176;" d="M458.614 526.112C461.474 526.112 462.798 527.781 462.174 530.284C461.574 532.69 459.344 534.495 456.544 534.495H451.184L454.59 520.833H463.51L462.993 522.91H456.453L455.654 526.112H458.614ZM454.067 532.477H456.707C458.267 532.477 459.42 531.623 459.759 530.265C460.098 528.906 459.366 528.072 457.806 528.072H455.166L454.067 532.477ZM469.364 527.606C471.664 527.606 472.741 529.061 472.253 531.021C471.759 533.001 469.926 534.495 467.646 534.495H463.346L465.814 524.598H468.074L467.324 527.606H469.364ZM466.066 532.651H467.826C468.946 532.651 469.765 531.933 469.993 531.021C470.22 530.109 469.74 529.469 468.62 529.469H466.86L466.066 532.651ZM475.783 534.495H473.503L475.97 524.598H478.25L477.302 528.402H479.042C480.087 525.976 482.348 524.365 484.888 524.365C487.868 524.365 489.296 526.5 488.536 529.547C487.772 532.613 485.285 534.728 482.305 534.728C479.645 534.728 478.18 532.981 478.493 530.362H476.813L475.783 534.495ZM480.956 529.547C480.482 531.448 481.133 532.768 482.793 532.768C484.453 532.768 485.762 531.448 486.236 529.547C486.711 527.645 486.06 526.325 484.4 526.325C482.74 526.325 481.431 527.645 480.956 529.547ZM490.272 526.539L490.756 524.598H499.556L499.072 526.539H495.812L493.829 534.495H491.549L493.532 526.539H490.272ZM510.577 524.598L508.11 534.495H505.87L507.51 527.916L501.25 534.495H499.05L501.517 524.598H503.757L502.117 531.177L508.377 524.598H510.577ZM511.686 530.245L512.194 528.208H518.554L518.046 530.245H511.686ZM447.401 546.779C448.11 544.819 450.211 543.771 452.371 543.771C454.511 543.771 455.856 544.877 455.425 546.604C455.12 547.827 454.2 548.467 453.408 548.758C454.144 548.933 455.085 549.573 454.717 551.048C454.257 552.892 452.228 554.134 449.748 554.134C447.388 554.134 445.933 552.989 446.171 550.99H448.391C448.399 551.844 449.102 552.31 450.202 552.31C451.362 552.31 452.243 551.825 452.461 550.951C452.664 550.136 452.101 549.748 450.861 549.748H449.361L449.797 548.002H451.177C452.237 548.002 452.948 547.555 453.141 546.779C453.33 546.022 452.776 545.595 451.796 545.595C450.716 545.595 449.931 546.1 449.581 546.779H447.401ZM463.169 543.771C466.169 543.771 467.662 545.886 466.897 548.952C466.133 552.019 463.585 554.134 460.585 554.134C457.585 554.134 456.093 552.019 456.857 548.952C457.622 545.886 460.169 543.771 463.169 543.771ZM459.177 548.952C458.703 550.854 459.394 552.174 461.074 552.174C462.754 552.174 464.103 550.854 464.577 548.952C465.051 547.051 464.36 545.731 462.68 545.731C461 545.731 459.651 547.051 459.177 548.952ZM470.124 553.901H467.844L470.312 544.004H472.592L471.643 547.807H476.023L476.972 544.004H479.252L476.784 553.901H474.504L475.535 549.767H471.155L470.124 553.901ZM487.159 547.342C487.449 546.177 486.734 545.595 485.594 545.595C484.414 545.595 483.663 546.119 483.289 546.74H481.129C481.83 545.129 483.629 543.771 486.129 543.771C488.629 543.771 489.965 545.071 489.389 547.381L487.763 553.901H485.643L485.924 552.775C485.006 553.649 483.745 554.134 482.425 554.134C480.445 554.134 479.175 552.969 479.659 551.029C480.148 549.069 481.998 547.905 484.538 547.905H487.018L487.159 547.342ZM481.979 550.951C481.756 551.844 482.355 552.329 483.375 552.329C484.735 552.329 486.118 551.514 486.452 550.175L486.602 549.573H484.282C483.122 549.573 482.201 550.059 481.979 550.951Z" fill="white"/>
</g>
<g id="zhar-ptica">
<g id="Vector_56">
<path d="M681.5 623.46H583.5L592 562.6H687L681.5 623.46Z" fill="#9E01FF"/>
<path d="M686.453 563.1L681.043 622.96H584.075L592.435 563.1H686.453Z" stroke="white" stroke-opacity="0.25"/>
</g>
<path id="&#208;&#150;&#208;&#176;&#209;&#128;-&#208;&#191;&#209;&#130;&#208;&#184;&#209;&#134;&#208;&#176;" d="M604.477 598.828L605.204 594.237L600.795 598.828H598.821L603.653 593.781L600.447 589.093H602.407L605.345 593.352L606.019 589.093H607.657L606.983 593.352L611.269 589.093H613.229L608.543 593.753L611.785 598.828H609.797L606.842 594.237L606.115 598.828H604.477ZM617.738 594.154C617.87 593.324 617.333 592.909 616.535 592.909C615.709 592.909 615.216 593.283 614.992 593.725H613.48C613.872 592.578 615.047 591.61 616.797 591.61C618.547 591.61 619.563 592.536 619.302 594.182L618.566 598.828H617.082L617.209 598.026C616.621 598.648 615.768 598.994 614.844 598.994C613.458 598.994 612.497 598.164 612.716 596.781C612.937 595.385 614.161 594.555 615.939 594.555H617.675L617.738 594.154ZM614.335 596.726C614.234 597.362 614.683 597.708 615.397 597.708C616.349 597.708 617.267 597.127 617.419 596.173L617.486 595.744H615.862C615.05 595.744 614.436 596.09 614.335 596.726ZM625.336 591.61C627.002 591.61 628.299 592.882 627.915 595.302C627.532 597.721 625.819 598.994 624.125 598.994C623.089 598.994 622.431 598.551 622.162 598.039L621.619 601.469H620.023L621.558 591.776H623.098L622.953 592.688C623.393 592.121 624.202 591.61 625.336 591.61ZM622.549 595.329C622.33 596.712 622.946 597.597 624.08 597.597C625.2 597.597 626.086 596.684 626.305 595.302C626.522 593.933 625.927 593.006 624.807 593.006C623.673 593.006 622.777 593.891 622.558 595.274L622.549 595.329ZM629.325 595.799L629.555 594.347H634.007L633.777 595.799H629.325ZM636.159 591.776H642.375L641.259 598.828H639.663L640.56 593.158H637.536L636.639 598.828H635.043L636.159 591.776ZM643.529 593.158L643.748 591.776H649.908L649.689 593.158H647.407L646.509 598.828H644.913L645.811 593.158H643.529ZM657.623 591.776L656.506 598.828H654.938L655.68 594.14L651.704 598.828H650.164L651.281 591.776H652.849L652.106 596.463L656.083 591.776H657.623ZM665.864 597.445L665.365 600.598H663.839L664.119 598.828H658.435L659.552 591.776H661.148L660.25 597.445H663.246L664.144 591.776H665.74L664.842 597.445H665.864ZM671.934 594.154C672.065 593.324 671.529 592.909 670.731 592.909C669.905 592.909 669.412 593.283 669.188 593.725H667.676C668.067 592.578 669.243 591.61 670.993 591.61C672.743 591.61 673.758 592.536 673.497 594.182L672.761 598.828H671.277L671.404 598.026C670.816 598.648 669.963 598.994 669.039 598.994C667.653 598.994 666.692 598.164 666.911 596.781C667.133 595.385 668.356 594.555 670.134 594.555H671.87L671.934 594.154ZM668.53 596.726C668.43 597.362 668.879 597.708 669.593 597.708C670.545 597.708 671.463 597.127 671.614 596.173L671.682 595.744H670.058C669.246 595.744 668.631 596.09 668.53 596.726Z" fill="white"/>
</g>
<g id="zhar-ptica_2">
<g id="Vector_57">
<path d="M815 563H754L764 457L822.5 457L815 563Z" fill="#9E01FF"/>
<path d="M821.963 457.5L814.534 562.5H754.549L764.455 457.5H821.963Z" stroke="white" stroke-opacity="0.25"/>
</g>
<path id="&#208;&#159;&#208;&#190;&#208;&#187;&#209;&#143;&#208;&#189;&#208;&#176;-&#208;&#146;&#208;&#176;&#208;&#187;&#209;&#143;&#208;&#189;&#208;&#176;" d="M807.392 480.607L806.717 490.827L794.073 489.992L794.214 487.855L804.936 488.563L805.329 482.618L794.606 481.91L794.747 479.772L807.392 480.607ZM803.006 497.301C802.829 499.995 800.751 501.679 797.913 501.492C795.075 501.305 793.237 499.361 793.415 496.667C793.593 493.973 795.671 492.288 798.509 492.476C801.346 492.663 803.184 494.606 803.006 497.301ZM798.371 494.559C796.611 494.443 795.329 495.278 795.229 496.787C795.13 498.296 796.291 499.292 798.051 499.409C799.811 499.525 801.093 498.689 801.192 497.181C801.292 495.672 800.131 494.675 798.371 494.559ZM793.241 502.035L795.037 502.154L795.018 502.441C794.951 503.465 795.449 503.841 796.825 504.04L802.291 504.852L801.847 511.587L792.687 510.982L792.822 508.935L800.186 509.421L800.376 506.547L796.553 505.97C794.034 505.605 793.072 504.604 793.205 502.592L793.241 502.035ZM792.579 512.617L795.711 515.169C796.29 514.053 797.376 513.457 798.615 513.539C800.339 513.652 801.627 514.91 801.481 517.119L801.223 521.035L792.063 520.43L792.197 518.4L795.16 518.596L795.252 517.213L792.427 514.916L792.579 512.617ZM798.463 515.567C797.619 515.511 796.987 516.065 796.921 517.071L796.813 518.705L799.687 518.895L799.795 517.26C799.86 516.273 799.307 515.623 798.463 515.567ZM791.764 524.963L791.899 522.916L801.059 523.52L800.924 525.568L797.403 525.335L797.144 529.269L800.664 529.501L800.529 531.549L791.369 530.944L791.504 528.896L795.33 529.149L795.589 525.216L791.764 524.963ZM796.921 539.193C797.999 539.264 798.589 538.527 798.656 537.504C798.726 536.444 798.278 535.855 797.716 535.62L797.845 533.68C799.317 534.048 800.488 535.442 800.34 537.687C800.192 539.932 798.89 541.343 796.753 541.202L790.718 540.804L790.843 538.9L791.885 538.969C791.118 538.287 790.737 537.233 790.815 536.048C790.933 534.27 792.103 532.94 793.899 533.059C795.713 533.178 796.698 534.65 796.547 536.932L796.4 539.159L796.921 539.193ZM793.834 535.129C793.008 535.074 792.516 535.691 792.456 536.607C792.375 537.829 793.06 538.938 794.299 539.02L794.856 539.057L794.993 536.973C795.062 535.931 794.661 535.183 793.834 535.129ZM794.507 543.253L796.392 543.378L796.015 549.089L794.129 548.965L794.507 543.253ZM776.786 478.586L789.431 479.421L789.108 484.307C788.939 486.875 787.396 488.108 785.564 487.987C784.055 487.888 783.213 486.984 782.925 486.153C782.594 487.07 781.599 488.212 779.767 488.091C777.665 487.953 776.281 486.238 776.453 483.633L776.786 478.586ZM778.477 480.845L778.301 483.521C778.21 484.886 778.833 485.847 780.036 485.926C781.203 486.004 781.979 485.189 782.068 483.842L782.249 481.094L778.477 480.845ZM784.009 481.21L783.842 483.742C783.754 485.072 784.467 485.75 785.437 485.814C786.515 485.885 787.211 485.174 787.296 483.88L787.458 481.438L784.009 481.21ZM781.758 495.631C782.836 495.702 783.426 494.965 783.493 493.941C783.563 492.882 783.115 492.293 782.553 492.057L782.682 490.118C784.154 490.485 785.325 491.88 785.177 494.125C785.029 496.37 783.727 497.781 781.59 497.64L775.555 497.242L775.68 495.338L776.722 495.406C775.955 494.724 775.574 493.671 775.652 492.486C775.77 490.707 776.94 489.378 778.736 489.496C780.55 489.616 781.535 491.088 781.384 493.369L781.237 495.596L781.758 495.631ZM778.671 491.567C777.845 491.512 777.353 492.129 777.293 493.045C777.212 494.266 777.897 495.376 779.136 495.458L779.693 495.494L779.83 493.411C779.899 492.369 779.498 491.621 778.671 491.567ZM775.424 498.675L777.22 498.793L777.201 499.081C777.134 500.104 777.632 500.48 779.008 500.679L784.474 501.491L784.029 508.226L774.869 507.622L775.005 505.574L782.369 506.06L782.558 503.186L778.736 502.609C776.217 502.245 775.254 501.243 775.387 499.231L775.424 498.675ZM774.761 509.256L777.894 511.808C778.473 510.692 779.559 510.096 780.798 510.178C782.522 510.292 783.81 511.549 783.664 513.758L783.406 517.674L774.246 517.069L774.38 515.039L777.343 515.235L777.434 513.852L774.61 511.555L774.761 509.256ZM780.646 512.206C779.802 512.15 779.17 512.704 779.103 513.71L778.996 515.344L781.869 515.534L781.977 513.9C782.042 512.912 781.49 512.262 780.646 512.206ZM773.946 521.602L774.081 519.555L783.242 520.159L783.106 522.207L779.586 521.975L779.326 525.908L782.847 526.14L782.711 528.188L773.551 527.583L773.687 525.536L777.512 525.788L777.772 521.855L773.946 521.602ZM779.104 535.832C780.182 535.903 780.771 535.167 780.839 534.143C780.909 533.083 780.461 532.494 779.899 532.259L780.027 530.319C781.5 530.687 782.671 532.081 782.523 534.326C782.374 536.571 781.073 537.983 778.935 537.841L772.9 537.443L773.026 535.539L774.068 535.608C773.301 534.926 772.92 533.873 772.998 532.687C773.115 530.909 774.286 529.579 776.082 529.698C777.896 529.818 778.881 531.29 778.73 533.571L778.583 535.798L779.104 535.832ZM776.017 531.768C775.191 531.713 774.699 532.33 774.639 533.246C774.558 534.468 775.242 535.577 776.482 535.659L777.039 535.696L777.176 533.612C777.245 532.571 776.843 531.823 776.017 531.768Z" fill="white"/>
</g>
<g id="zhar-ptica_3">
<g id="Vector_58">
<path d="M592.691 513.73H546.021L559.41 445.531L603 445.531L592.691 513.73Z" fill="#9E01FF"/>
<path d="M602.295 446.137L592.17 513.123H546.758L559.909 446.137H602.295Z" stroke="white" stroke-opacity="0.25" stroke-width="1.21286"/>
</g>
<path id="&#208;&#150;&#208;&#176;&#209;&#128;-&#208;&#191;&#209;&#130;&#208;&#184;&#209;&#134;&#208;&#176;_2" d="M569.049 494.268L564.219 494.099L568.384 498.037L568.027 500.058L563.446 495.745L557.803 499.615L558.156 497.608L563.289 494.066L558.809 493.91L559.104 492.233L563.584 492.389L559.756 488.535L560.11 486.528L564.299 490.742L570.368 486.786L570.009 488.821L564.515 492.422L569.344 492.591L569.049 494.268ZM566.392 481.277C565.52 481.247 564.975 481.848 564.831 482.665C564.681 483.51 564.996 483.969 565.434 484.142L565.161 485.69C563.991 485.433 563.158 484.351 563.473 482.56C563.789 480.768 564.974 479.612 566.705 479.673L571.592 479.844L571.324 481.363L570.48 481.333C571.046 481.858 571.266 482.688 571.099 483.634C570.849 485.053 569.779 486.14 568.325 486.089C566.855 486.038 566.18 484.89 566.501 483.069L566.814 481.292L566.392 481.277ZM568.557 484.439C569.226 484.462 569.681 483.959 569.81 483.228C569.981 482.253 569.52 481.386 568.516 481.351L568.065 481.336L567.772 482.998C567.625 483.83 567.888 484.416 568.557 484.439ZM565.015 473.818C565.316 472.112 566.924 470.625 569.47 470.714C572.015 470.803 573.08 472.398 572.775 474.132C572.588 475.193 571.991 475.922 571.389 476.261L574.997 476.387L574.708 478.021L564.512 477.665L564.79 476.088L565.75 476.122C565.217 475.743 564.81 474.979 565.015 473.818ZM568.531 476.205C569.985 476.255 571.053 475.514 571.257 474.353C571.46 473.206 570.634 472.413 569.179 472.362C567.739 472.312 566.631 473.038 566.428 474.184C566.224 475.345 567.018 476.152 568.473 476.203L568.531 476.205ZM570.262 469.209L568.735 469.155L569.538 464.597L571.066 464.651L570.262 469.209ZM575.739 499.534L576.861 493.17L584.279 493.429L583.991 495.063L578.028 494.855L577.482 497.951L583.445 498.159L583.157 499.793L575.739 499.534ZM578.564 491.816L577.109 491.765L578.221 485.459L579.676 485.509L579.264 487.846L585.227 488.054L584.939 489.688L578.976 489.48L578.564 491.816ZM579.614 477.56L587.032 477.819L586.749 479.425L581.818 479.253L586.165 482.736L585.887 484.312L578.469 484.053L578.752 482.448L583.683 482.62L579.336 479.137L579.614 477.56ZM587.227 468.412L590.544 468.527L590.268 470.09L588.406 470.025L587.38 475.844L579.962 475.585L580.25 473.951L586.214 474.159L586.755 471.092L580.791 470.884L581.079 469.25L587.043 469.458L587.227 468.412ZM584.767 462.61C583.894 462.58 583.349 463.181 583.205 463.998C583.056 464.844 583.37 465.302 583.808 465.476L583.535 467.024C582.366 466.767 581.532 465.685 581.848 463.893C582.164 462.101 583.348 460.946 585.079 461.006L589.966 461.177L589.699 462.696L588.855 462.667C589.421 463.191 589.641 464.021 589.474 464.967C589.224 466.386 588.154 467.473 586.699 467.423C585.23 467.371 584.555 466.223 584.875 464.403L585.189 462.625L584.767 462.61ZM586.932 465.772C587.601 465.796 588.055 465.292 588.184 464.561C588.356 463.587 587.894 462.72 586.891 462.685L586.44 462.669L586.147 464.332C586 465.163 586.263 465.749 586.932 465.772Z" fill="white"/>
</g>
<g id="glitter-things-beauty_2">
<path id="Vector_59" d="M611.103 547.515H539L544.846 516.985H615L611.103 547.515Z" fill="url(#paint12_linear_1141_2608)"/>
<path id="&#208;&#156;&#208;&#181;&#209;&#133;&#208;&#181;&#208;&#189;&#208;&#180;&#208;&#184;" d="M550.561 527.783H552.471L554.043 534.733L558.304 527.783H560.188L558.443 536.761H556.975L558.239 530.257L554.267 536.723H553.02L551.561 530.257L550.297 536.761H548.816L550.561 527.783ZM560.661 533.522C561.073 531.405 562.638 530.104 564.508 530.104C566.327 530.104 567.264 531.367 566.882 533.331L566.766 533.93H562.102L562.097 533.956C561.906 534.938 562.472 535.703 563.537 535.703C564.329 535.703 564.863 535.295 565.024 535.001H566.479C566.149 535.83 565.081 536.914 563.276 536.914C561.314 536.914 560.252 535.626 560.661 533.522ZM562.328 532.833H565.511C565.642 531.89 565.182 531.316 564.26 531.316C563.324 531.316 562.6 531.902 562.328 532.833ZM566.825 536.761L569.772 533.496L568.115 530.257H569.817L570.919 532.54L572.883 530.257H574.52L571.607 533.547L573.282 536.761H571.567L570.46 534.504L568.475 536.761H566.825ZM574.376 533.522C574.787 531.405 576.352 530.104 578.223 530.104C580.042 530.104 580.979 531.367 580.597 533.331L580.48 533.93H575.816L575.811 533.956C575.621 534.938 576.186 535.703 577.252 535.703C578.044 535.703 578.578 535.295 578.739 535.001H580.194C579.864 535.83 578.796 536.914 576.99 536.914C575.028 536.914 573.967 535.626 574.376 533.522ZM576.043 532.833H579.225C579.357 531.89 578.897 531.316 577.974 531.316C577.039 531.316 576.314 531.902 576.043 532.833ZM582.823 536.761H581.342L582.606 530.257H584.087L583.601 532.757H586.446L586.932 530.257H588.413L587.149 536.761H585.668L586.196 534.045H583.351L582.823 536.761ZM596.023 535.486L595.457 538.394H594.028L594.346 536.761H589.669L589.351 538.394H587.922L588.488 535.486H589.02C589.509 535.244 589.884 534.453 590.155 533.458L591.024 530.257H596.078L595.061 535.486H596.023ZM590.618 535.486H593.58L594.349 531.533H592.088L591.548 533.509C591.327 534.313 591.108 535.04 590.618 535.486ZM604.185 530.257L602.921 536.761H601.466L602.306 532.438L598.464 536.761H597.035L598.3 530.257H599.755L598.914 534.58L602.756 530.257H604.185Z" fill="white"/>
</g>
<g id="interactive-russia_2">
<g id="Vector_60">
<path d="M777.12 434.22H700L704.068 403H780L777.12 434.22Z" fill="#9E01FF"/>
<path d="M779.389 403.557L776.612 433.662H700.635L704.558 403.557H779.389Z" stroke="white" stroke-opacity="0.25" stroke-width="1.11498"/>
</g>
<path id="&#208;&#159;&#209;&#128;&#208;&#181;&#208;&#180;&#209;&#129;&#208;&#186;&#208;&#176;&#208;&#183;&#208;&#176;&#209;&#130;&#208;&#181;&#208;&#187;&#209;&#140;" d="M708.249 415.755H713.324V422.035H712.263V416.71H709.31V422.035H708.249V415.755ZM717.057 417.379C718.118 417.379 719.073 418.199 719.073 419.76C719.073 421.321 718.109 422.142 717.03 422.142C716.37 422.142 715.906 421.856 715.683 421.526V423.738H714.666V417.486H715.647V418.074C715.87 417.709 716.334 417.379 717.057 417.379ZM715.656 419.778C715.656 420.67 716.138 421.241 716.861 421.241C717.574 421.241 718.047 420.652 718.047 419.76C718.047 418.877 717.574 418.279 716.861 418.279C716.138 418.279 715.656 418.85 715.656 419.742V419.778ZM719.782 419.769C719.782 418.288 720.683 417.379 721.967 417.379C723.216 417.379 724.028 418.262 724.028 419.635V420.054H720.826V420.072C720.826 420.759 721.316 421.294 722.048 421.294C722.592 421.294 722.904 421.009 722.975 420.804H723.974C723.858 421.384 723.27 422.142 722.03 422.142C720.683 422.142 719.782 421.241 719.782 419.769ZM720.835 419.287H723.02C722.984 418.627 722.592 418.226 721.959 418.226C721.316 418.226 720.897 418.636 720.835 419.287ZM729.663 421.143V423.176H728.682V422.035H725.471V423.176H724.489V421.143H724.855C725.158 420.973 725.31 420.42 725.364 419.724L725.533 417.486H729.003V421.143H729.663ZM725.952 421.143H727.986V418.378H726.434L726.327 419.76C726.282 420.322 726.229 420.83 725.952 421.143ZM732.473 421.241C733.124 421.241 733.401 420.83 733.49 420.483H734.48C734.382 421.375 733.633 422.142 732.464 422.142C731.126 422.142 730.261 421.143 730.261 419.76C730.261 418.395 731.118 417.379 732.464 417.379C733.695 417.379 734.364 418.208 734.471 419.02H733.481C733.374 418.681 733.089 418.279 732.464 418.279C731.742 418.279 731.296 418.886 731.296 419.76C731.296 420.652 731.76 421.241 732.473 421.241ZM736.432 422.035H735.415V417.486H736.432V419.377L738.181 417.486H739.385L737.422 419.608L739.411 422.035H738.181L736.432 419.912V422.035ZM742.717 419.02C742.717 418.485 742.333 418.217 741.825 418.217C741.298 418.217 741.022 418.458 740.924 418.743H739.96C740.094 418.003 740.745 417.379 741.86 417.379C742.975 417.379 743.716 417.976 743.716 419.038V422.035H742.77V421.517C742.458 421.919 741.949 422.142 741.361 422.142C740.478 422.142 739.782 421.607 739.782 420.715C739.782 419.814 740.478 419.278 741.61 419.278H742.717V419.02ZM740.808 420.679C740.808 421.089 741.129 421.312 741.584 421.312C742.19 421.312 742.717 420.938 742.717 420.322V420.046H741.682C741.164 420.046 740.808 420.269 740.808 420.679ZM744.696 418.761C744.794 417.86 745.615 417.379 746.578 417.379C747.533 417.379 748.255 417.887 748.255 418.681C748.255 419.243 747.916 419.537 747.595 419.671C747.943 419.751 748.433 420.046 748.433 420.723C748.433 421.571 747.666 422.142 746.56 422.142C745.508 422.142 744.732 421.615 744.616 420.697H745.606C745.704 421.089 746.07 421.303 746.56 421.303C747.078 421.303 747.417 421.08 747.417 420.679C747.417 420.304 747.122 420.126 746.569 420.126H745.9V419.323H746.516C746.988 419.323 747.256 419.118 747.256 418.761C747.256 418.413 746.962 418.217 746.525 418.217C746.043 418.217 745.749 418.449 745.668 418.761H744.696ZM752.081 419.02C752.081 418.485 751.697 418.217 751.189 418.217C750.662 418.217 750.386 418.458 750.288 418.743H749.324C749.458 418.003 750.109 417.379 751.224 417.379C752.339 417.379 753.08 417.976 753.08 419.038V422.035H752.134V421.517C751.822 421.919 751.314 422.142 750.725 422.142C749.842 422.142 749.146 421.607 749.146 420.715C749.146 419.814 749.842 419.278 750.975 419.278H752.081V419.02ZM750.172 420.679C750.172 421.089 750.493 421.312 750.948 421.312C751.554 421.312 752.081 420.938 752.081 420.322V420.046H751.046C750.529 420.046 750.172 420.269 750.172 420.679ZM753.839 418.378V417.486H757.764V418.378H756.31V422.035H755.293V418.378H753.839ZM758.205 419.769C758.205 418.288 759.106 417.379 760.391 417.379C761.64 417.379 762.451 418.262 762.451 419.635V420.054H759.249V420.072C759.249 420.759 759.74 421.294 760.471 421.294C761.015 421.294 761.327 421.009 761.399 420.804H762.398C762.282 421.384 761.693 422.142 760.453 422.142C759.106 422.142 758.205 421.241 758.205 419.769ZM759.258 419.287H761.443C761.408 418.627 761.015 418.226 760.382 418.226C759.74 418.226 759.32 418.636 759.258 419.287ZM762.904 422.053V421.161H763.047C763.555 421.161 763.725 420.902 763.778 420.215L764.001 417.486H767.346V422.035H766.329V418.378H764.902L764.742 420.286C764.643 421.544 764.18 422.053 763.181 422.053H762.904ZM770.504 418.868C771.53 418.868 772.172 419.537 772.172 420.438C772.172 421.348 771.521 422.035 770.504 422.035H768.586V417.486H769.594V418.868H770.504ZM769.594 421.187H770.379C770.878 421.187 771.164 420.857 771.164 420.438C771.164 420.019 770.878 419.724 770.379 419.724H769.594V421.187Z" fill="white"/>
</g>
<g id="zhar-ptica_4">
<g id="Vector_61">
<path d="M640.59 434.04H561.5L568.04 402.96H643.45L640.59 434.04Z" fill="#9E01FF"/>
<path d="M642.902 403.46L640.134 433.54H562.116L568.446 403.46H642.902Z" stroke="white" stroke-opacity="0.25"/>
</g>
<path id="&#208;&#150;&#208;&#176;&#209;&#128;-&#208;&#191;&#209;&#130;&#208;&#184;&#209;&#134;&#208;&#176;_3" d="M580.752 421.816L581.386 418.557L578.122 421.816H576.712L580.289 418.233L578.116 414.906H579.516L581.508 417.929L582.096 414.906H583.266L582.678 417.929L585.846 414.906H587.246L583.783 418.214L585.972 421.816H584.552L582.556 418.557L581.922 421.816H580.752ZM590.341 418.498C590.455 417.909 590.082 417.615 589.512 417.615C588.922 417.615 588.561 417.88 588.39 418.194H587.31C587.618 417.379 588.482 416.692 589.732 416.692C590.982 416.692 591.684 417.35 591.457 418.518L590.816 421.816H589.756L589.866 421.247C589.431 421.689 588.813 421.934 588.153 421.934C587.163 421.934 586.497 421.345 586.688 420.363C586.881 419.372 587.775 418.783 589.045 418.783H590.285L590.341 418.498ZM587.846 420.324C587.758 420.776 588.07 421.021 588.58 421.021C589.26 421.021 589.93 420.609 590.062 419.932L590.121 419.627H588.961C588.381 419.627 587.934 419.873 587.846 420.324ZM595.831 416.692C597.021 416.692 597.915 417.595 597.582 419.313C597.248 421.031 595.992 421.934 594.782 421.934C594.042 421.934 593.583 421.62 593.404 421.257L592.931 423.691H591.791L593.128 416.81H594.228L594.102 417.458C594.43 417.055 595.021 416.692 595.831 416.692ZM593.748 419.333C593.557 420.314 593.975 420.943 594.785 420.943C595.585 420.943 596.241 420.295 596.432 419.313C596.62 418.341 596.218 417.684 595.418 417.684C594.608 417.684 593.946 418.312 593.755 419.293L593.748 419.333ZM598.576 419.667L598.776 418.636H601.956L601.756 419.667H598.576ZM603.558 416.81H607.998L607.025 421.816H605.885L606.667 417.792H604.507L603.725 421.816H602.585L603.558 416.81ZM608.787 417.792L608.978 416.81H613.378L613.187 417.792H611.557L610.775 421.816H609.635L610.417 417.792H608.787ZM618.889 416.81L617.915 421.816H616.795L617.442 418.489L614.485 421.816H613.385L614.359 416.81H615.479L614.832 420.138L617.789 416.81H618.889ZM624.634 420.835L624.199 423.073H623.109L623.354 421.816H619.294L620.267 416.81H621.407L620.624 420.835H622.764L623.547 416.81H624.687L623.904 420.835H624.634ZM629.052 418.498C629.166 417.909 628.793 417.615 628.223 417.615C627.633 417.615 627.272 417.88 627.101 418.194H626.021C626.329 417.379 627.193 416.692 628.443 416.692C629.693 416.692 630.395 417.35 630.168 418.518L629.527 421.816H628.467L628.577 421.247C628.141 421.689 627.524 421.934 626.864 421.934C625.874 421.934 625.208 421.345 625.399 420.363C625.592 419.372 626.486 418.783 627.756 418.783H628.996L629.052 418.498ZM626.557 420.324C626.469 420.776 626.781 421.021 627.291 421.021C627.971 421.021 628.641 420.609 628.773 419.932L628.832 419.627H627.672C627.092 419.627 626.644 419.873 626.557 420.324Z" fill="white"/>
</g>
<g id="zhar-ptica_5">
<g id="Vector_62">
<path d="M747.739 623.5H681L684.522 583H751.435L747.739 623.5Z" fill="#9E01FF"/>
<path d="M750.792 583.587L747.203 622.913H681.64L685.06 583.587H750.792Z" stroke="white" stroke-opacity="0.25" stroke-width="1.17391"/>
</g>
<path id="&#208;&#150;&#208;&#176;&#209;&#128;-&#208;&#191;&#209;&#130;&#208;&#184;&#209;&#134;&#208;&#176;_4" d="M694.317 606.087V602.969L691.847 606.087H690.523L693.228 602.659L690.579 599.475H691.894L694.317 602.368V599.475H695.416V602.368L697.839 599.475H699.154L696.505 602.64L699.219 606.087H697.886L695.416 602.969V606.087H694.317ZM702.716 602.913C702.716 602.349 702.312 602.067 701.777 602.067C701.223 602.067 700.932 602.321 700.828 602.622H699.814C699.955 601.842 700.641 601.185 701.815 601.185C702.988 601.185 703.768 601.814 703.768 602.931V606.087H702.772V605.542C702.444 605.965 701.908 606.2 701.289 606.2C700.359 606.2 699.626 605.636 699.626 604.697C699.626 603.748 700.359 603.185 701.552 603.185H702.716V602.913ZM700.706 604.659C700.706 605.091 701.044 605.326 701.523 605.326C702.162 605.326 702.716 604.932 702.716 604.284V603.993H701.627C701.082 603.993 700.706 604.227 700.706 604.659ZM707.543 601.185C708.66 601.185 709.665 602.049 709.665 603.692C709.665 605.336 708.651 606.2 707.514 606.2C706.819 606.2 706.331 605.899 706.096 605.552V607.881H705.026V601.297H706.059V601.917C706.294 601.532 706.782 601.185 707.543 601.185ZM706.068 603.711C706.068 604.65 706.575 605.251 707.336 605.251C708.087 605.251 708.585 604.631 708.585 603.692C708.585 602.762 708.087 602.133 707.336 602.133C706.575 602.133 706.068 602.734 706.068 603.673V603.711ZM710.663 604.03V603.044H713.65V604.03H710.663ZM714.821 601.297H718.99V606.087H717.92V602.236H715.891V606.087H714.821V601.297ZM719.911 602.236V601.297H724.043V602.236H722.512V606.087H721.442V602.236H719.911ZM729.218 601.297V606.087H728.166V602.903L725.997 606.087H724.964V601.297H726.016V604.481L728.185 601.297H729.218ZM735.349 605.148V607.289H734.325V606.087H730.512V601.297H731.583V605.148H733.593V601.297H734.663V605.148H735.349ZM739.071 602.913C739.071 602.349 738.667 602.067 738.132 602.067C737.578 602.067 737.286 602.321 737.183 602.622H736.169C736.31 601.842 736.995 601.185 738.169 601.185C739.343 601.185 740.123 601.814 740.123 602.931V606.087H739.127V605.542C738.798 605.965 738.263 606.2 737.643 606.2C736.714 606.2 735.981 605.636 735.981 604.697C735.981 603.748 736.714 603.185 737.906 603.185H739.071V602.913ZM737.061 604.659C737.061 605.091 737.399 605.326 737.878 605.326C738.517 605.326 739.071 604.932 739.071 604.284V603.993H737.981C737.437 603.993 737.061 604.227 737.061 604.659Z" fill="white"/>
</g>
<g id="lulu-med">
<g id="Vector_63">
<path d="M524.181 623.46H572.997L584 555.704H537.318L524.181 623.46Z" fill="#9E01FF"/>
<path d="M583.347 556.26L572.524 622.904H524.855L537.777 556.26H583.347Z" stroke="white" stroke-opacity="0.25" stroke-width="1.11148"/>
</g>
<path id="&#208;&#154;&#208;&#176;&#208;&#191;&#208;&#181;&#208;&#187;&#209;&#140;&#208;&#189;&#208;&#184;&#209;&#134;&#209;&#139; &#208;&#190;&#209;&#130; &#226;&#128;&#156;&#208;&#155;&#209;&#131;&#208;&#187;&#209;&#131; &#208;&#156;&#208;&#181;&#208;&#180;&#226;&#128;&#157;" d="M542.307 613.106L542.124 614.148L535.865 614.257L536.049 613.215L538.751 613.168L536.484 610.746L536.708 609.476L539.228 612.121L542.976 609.314L542.744 610.628L539.427 613.156L542.307 613.106ZM540.542 606.129C540.009 606.138 539.675 606.519 539.587 607.018C539.496 607.535 539.688 607.802 539.956 607.893L539.789 608.839C539.074 608.721 538.565 608.092 538.758 606.998C538.951 605.903 539.675 605.166 540.733 605.147L543.72 605.095L543.556 606.024L543.041 606.033C543.387 606.332 543.521 606.827 543.419 607.405C543.266 608.272 542.612 608.965 541.723 608.98C540.825 608.996 540.412 608.322 540.608 607.21L540.8 606.124L540.542 606.129ZM541.865 607.974C542.274 607.966 542.552 607.647 542.631 607.201C542.736 606.605 542.453 606.095 541.84 606.106L541.564 606.111L541.385 607.126C541.296 607.634 541.456 607.981 541.865 607.974ZM539.393 604.002L540.078 600.114L544.612 600.035L544.436 601.033L540.791 601.096L540.458 602.988L544.103 602.924L543.927 603.923L539.393 604.002ZM542.522 599.119C541.047 599.145 540.296 598.276 540.518 597.015C540.734 595.789 541.755 594.977 543.124 594.953L543.542 594.946L542.988 598.09L543.005 598.089C543.69 598.077 544.308 597.587 544.435 596.868C544.529 596.334 544.299 596.033 544.106 595.966L544.279 594.986C544.837 595.089 545.491 595.654 545.276 596.871C545.043 598.194 543.989 599.094 542.522 599.119ZM542.225 598.094L542.603 595.949C541.939 595.995 541.471 596.388 541.361 597.009C541.25 597.64 541.586 598.044 542.225 598.094ZM545.612 594.467L544.723 594.482L544.747 594.342C544.835 593.843 544.607 593.681 543.932 593.641L541.25 593.469L541.829 590.185L546.363 590.106L546.187 591.105L542.542 591.168L542.295 592.569L544.169 592.694C545.406 592.768 545.833 593.215 545.66 594.195L545.612 594.467ZM543.753 587.061C543.931 586.054 544.709 585.412 545.607 585.397C546.514 585.381 547.086 586.008 546.909 587.006L546.578 588.889L542.043 588.968L542.218 587.979L543.596 587.955L543.753 587.061ZM545.907 587.914L546.043 587.144C546.13 586.653 545.85 586.379 545.432 586.386C545.014 586.393 544.672 586.679 544.585 587.169L544.449 587.94L545.907 587.914ZM547.538 583.444L547.362 584.442L542.827 584.521L543.003 583.523L544.746 583.493L545.084 581.575L543.342 581.605L543.518 580.607L548.052 580.528L547.876 581.526L545.982 581.559L545.644 583.477L547.538 583.444ZM544.43 575.432L548.964 575.353L548.791 576.334L545.777 576.386L548.435 578.357L548.265 579.32L543.731 579.399L543.904 578.418L546.917 578.366L544.26 576.395L544.43 575.432ZM549.083 569.652L551.11 569.617L550.942 570.571L549.804 570.591L549.177 574.146L544.643 574.225L544.819 573.227L548.464 573.163L548.794 571.289L545.149 571.353L545.325 570.355L548.97 570.291L549.083 569.652ZM546.484 563.784L551.018 563.705L550.844 564.695L546.309 564.774L546.484 563.784ZM550.123 568.784L545.588 568.863L545.763 567.874L547.141 567.85L547.298 566.957C547.476 565.95 548.254 565.308 549.152 565.292C550.059 565.276 550.631 565.903 550.454 566.902L550.123 568.784ZM549.452 567.81L549.588 567.039C549.675 566.549 549.395 566.274 548.977 566.281C548.559 566.289 548.217 566.574 548.13 567.064L547.994 567.835L549.452 567.81ZM548.805 612.198C549.037 610.884 550.162 609.983 551.567 609.959C552.971 609.934 553.785 610.802 553.553 612.115C553.321 613.429 552.196 614.33 550.792 614.354C549.387 614.379 548.574 613.511 548.805 612.198ZM550.971 613.339C551.842 613.323 552.525 612.866 552.655 612.131C552.785 611.395 552.259 610.959 551.388 610.974C550.516 610.99 549.833 611.447 549.703 612.182C549.574 612.918 550.099 613.354 550.971 613.339ZM550.265 609.549L549.376 609.565L550.055 605.712L550.945 605.696L550.693 607.123L554.338 607.06L554.162 608.058L550.517 608.122L550.265 609.549ZM551.036 601.209C550.876 601.212 550.731 601.179 550.589 601.129L549.235 600.612L549.37 599.85L550.652 600.316C550.769 600.105 550.983 599.9 551.303 599.895C551.667 599.888 551.886 600.155 551.82 600.532C551.755 600.9 551.418 601.202 551.036 601.209ZM550.724 602.978C550.564 602.981 550.419 602.948 550.277 602.898L548.923 602.381L549.058 601.619L550.34 602.085C550.457 601.874 550.671 601.669 550.991 601.664C551.355 601.657 551.574 601.924 551.508 602.301C551.443 602.668 551.106 602.971 550.724 602.978ZM555.672 599.595L554.712 599.612L554.738 599.463C554.86 598.771 554.509 598.55 553.597 598.496L549.642 598.303L550.346 594.31L556.605 594.201L556.422 595.243L551.114 595.336L550.759 597.35L553.842 597.506C555.126 597.562 555.961 597.957 555.723 599.306L555.672 599.595ZM552.817 590.051L553.007 588.974L558.815 591.273L558.626 592.341L556.961 591.681L552.213 593.475L552.403 592.397L555.855 591.167L552.817 590.051ZM557.565 588.862L556.675 588.877L556.7 588.737C556.788 588.238 556.56 588.076 555.884 588.036L553.202 587.864L553.782 584.58L558.316 584.501L558.14 585.499L554.495 585.563L554.247 586.964L556.122 587.089C557.359 587.163 557.785 587.609 557.612 588.59L557.565 588.862ZM554.509 580.456L554.699 579.379L560.506 581.678L560.318 582.746L558.653 582.086L553.905 583.88L554.095 582.803L557.547 581.573L554.509 580.456ZM557.861 613.873L558.088 612.586L563.281 610.531L558.782 608.654L559.006 607.384L565.264 607.275L565.09 608.265L560.556 608.344L564.741 610.095L564.592 610.936L559.762 612.845L564.296 612.766L564.12 613.764L557.861 613.873ZM563.195 606.244C561.719 606.269 560.968 605.401 561.191 604.14C561.407 602.914 562.428 602.102 563.797 602.078L564.215 602.07L563.66 605.214L563.678 605.214C564.363 605.202 564.981 604.711 565.108 603.993C565.202 603.459 564.971 603.157 564.779 603.091L564.952 602.11C565.51 602.214 566.164 602.778 565.949 603.996C565.716 605.318 564.662 606.218 563.195 606.244ZM562.897 605.219L563.276 603.073C562.611 603.12 562.143 603.512 562.034 604.134C561.923 604.764 562.259 605.169 562.897 605.219ZM566.275 596.519L568.302 596.484L568.132 597.447L566.994 597.467L566.438 600.62L567.576 600.6L567.406 601.563L565.379 601.598L565.442 601.239C565.326 600.945 564.801 600.805 564.117 600.765L561.915 600.637L562.515 597.231L566.16 597.167L566.275 596.519ZM565.632 600.162L565.984 598.166L563.228 598.214L562.96 599.738L564.319 599.819C564.872 599.853 565.369 599.896 565.632 600.162ZM561.92 594.627C562.08 594.624 562.225 594.657 562.367 594.707L563.72 595.224L563.586 595.986L562.303 595.52C562.186 595.731 561.973 595.936 561.653 595.941C561.288 595.948 561.069 595.681 561.136 595.304C561.2 594.937 561.537 594.634 561.92 594.627ZM563.898 594.217L562.615 593.751C562.498 593.962 562.285 594.167 561.964 594.172C561.6 594.179 561.381 593.912 561.447 593.535C561.512 593.168 561.849 592.865 562.232 592.858C562.392 592.856 562.537 592.888 562.679 592.938L564.032 593.455L563.898 594.217Z" fill="white"/>
</g>
<g id="toilet">
<path id="Vector_64" d="M943.21 957.66H785.38L803.01 706.31L944.78 762.23L943.21 957.66Z" fill="#65B5FF"/>
<g id="Frame 56">
<path id="Vector_65" d="M849.117 863V841.722H844.5V825.004C844.5 823.721 844.945 822.641 845.836 821.764C846.722 820.884 847.816 820.444 849.117 820.444H857.404C858.703 820.444 859.797 820.884 860.688 821.764C861.576 822.641 862.021 823.721 862.021 825.004V841.722H857.404V863H849.117ZM853.26 817.289C851.803 817.289 850.571 816.791 849.564 815.794C848.556 814.799 848.052 813.583 848.052 812.146C848.052 810.707 848.556 809.489 849.564 808.492C850.571 807.497 851.803 807 853.26 807C854.717 807 855.95 807.497 856.957 808.492C857.965 809.487 858.469 810.704 858.469 812.143C858.469 813.582 857.965 814.799 856.957 815.794C855.95 816.789 854.717 817.287 853.26 817.289ZM877.885 863V846.282H870.427L876.617 823.496C876.911 822.53 877.451 821.78 878.239 821.247C879.025 820.712 879.933 820.444 880.964 820.444C881.994 820.444 882.903 820.712 883.691 821.247C884.479 821.782 885.018 822.532 885.31 823.496L891.5 846.282H884.042V863H877.885ZM880.964 817.289C879.507 817.289 878.274 816.791 877.267 815.794C876.259 814.799 875.755 813.583 875.755 812.146C875.755 810.707 876.259 809.489 877.267 808.492C878.276 807.497 879.509 807 880.964 807C882.418 807 883.651 807.497 884.66 808.492C885.668 809.489 886.172 810.706 886.172 812.143C886.172 813.58 885.668 814.797 884.66 815.794C883.653 816.791 882.421 817.289 880.964 817.289Z" fill="white"/>
<path id="&#208;&#162;&#209;&#131;&#208;&#176;&#208;&#187;&#208;&#181;&#209;&#130;&#209;&#139;" d="M833.038 875.214L833.239 873.299H843.355L843.154 875.214H839.176L838.053 885.901H835.911L837.034 875.214H833.038ZM850.045 876.772H852.259L845.99 889.321H843.794L845.594 885.722L843.007 876.772H845.221L846.946 883.306L850.045 876.772ZM858.567 879.851C858.68 878.777 857.962 878.24 856.936 878.24C855.874 878.24 855.265 878.723 855.007 879.296H853.063C853.489 877.81 854.935 876.557 857.185 876.557C859.435 876.557 860.803 877.756 860.579 879.887L859.947 885.901H858.039L858.148 884.863C857.433 885.669 856.36 886.116 855.172 886.116C853.39 886.116 852.099 885.042 852.287 883.252C852.477 881.444 853.994 880.37 856.28 880.37H858.512L858.567 879.851ZM854.365 883.18C854.278 884.004 854.879 884.451 855.797 884.451C857.021 884.451 858.162 883.7 858.292 882.464L858.351 881.909H856.263C855.219 881.909 854.452 882.357 854.365 883.18ZM861.382 885.937L861.57 884.147H861.858C862.884 884.147 863.281 883.628 863.533 882.25L864.559 876.772H871.309L870.35 885.901H868.298L869.069 878.562H866.189L865.462 882.393C864.999 884.917 863.956 885.937 861.94 885.937H861.382ZM872.808 881.354C873.12 878.383 875.13 876.557 877.722 876.557C880.242 876.557 881.694 878.329 881.404 881.086L881.315 881.927H874.853L874.85 881.963C874.705 883.341 875.582 884.416 877.058 884.416C878.156 884.416 878.846 883.843 879.033 883.431H881.049C880.693 884.595 879.345 886.116 876.843 886.116C874.125 886.116 872.497 884.308 872.808 881.354ZM875.033 880.388H879.443C879.51 879.063 878.803 878.257 877.525 878.257C876.229 878.257 875.297 879.081 875.033 880.388ZM882.606 878.562L882.794 876.772H890.714L890.526 878.562H887.592L886.821 885.901H884.769L885.54 878.562H882.606ZM902.919 876.772L901.96 885.901H899.926L900.885 876.772H902.919ZM891.52 885.901L892.479 876.772H894.513L894.222 879.546H896.058C898.128 879.546 899.282 880.889 899.092 882.697C898.901 884.523 897.442 885.901 895.39 885.901H891.52ZM893.732 884.201H895.316C896.324 884.201 896.97 883.538 897.058 882.697C897.147 881.856 896.633 881.265 895.625 881.265H894.041L893.732 884.201Z" fill="white"/>
</g>
</g>
<g id="viktor-tkachev">
<g id="Vector_66">
<path d="M1685 252H1602.26L1584.81 211.703H1669.82L1685 252Z" fill="#7900C4"/>
<path d="M1669.26 212.512L1683.83 251.191H1602.79L1586.04 212.512H1669.26Z" stroke="white" stroke-opacity="0.25" stroke-width="1.61868"/>
</g>
<path id="&#208;&#152;&#208;&#179;&#209;&#128;&#208;&#176; &#208;&#147;&#208;&#158;" d="M1619.63 227.909L1622.52 236.292H1621.05L1618.93 230.16L1616.74 236.292H1615.25L1612.37 227.909H1613.85L1615.96 234.041L1618.16 227.909H1619.63ZM1624.42 236.292L1622.33 230.219H1626.74L1627.15 231.41H1624.18L1625.86 236.292H1624.42ZM1631.34 230.076C1632.84 230.076 1634.56 231.172 1635.28 233.255C1636 235.339 1635.01 236.435 1633.49 236.435C1632.56 236.435 1631.77 236.054 1631.31 235.613L1632.32 238.566H1630.89L1628.01 230.219H1629.4L1629.67 231.005C1629.82 230.517 1630.32 230.076 1631.34 230.076ZM1630.47 233.279C1630.88 234.47 1631.82 235.232 1632.84 235.232C1633.84 235.232 1634.24 234.446 1633.83 233.255C1633.43 232.077 1632.48 231.279 1631.48 231.279C1630.46 231.279 1630.04 232.041 1630.45 233.232L1630.47 233.279ZM1640.07 232.267C1639.83 231.553 1639.16 231.196 1638.44 231.196C1637.7 231.196 1637.42 231.517 1637.41 231.898H1636.05C1635.9 230.91 1636.53 230.076 1638.11 230.076C1639.68 230.076 1641 230.874 1641.49 232.291L1642.87 236.292H1641.53L1641.3 235.601C1641.04 236.137 1640.42 236.435 1639.59 236.435C1638.35 236.435 1637.12 235.72 1636.71 234.53C1636.29 233.327 1637.03 232.613 1638.63 232.613H1640.19L1640.07 232.267ZM1638.14 234.482C1638.33 235.03 1638.88 235.327 1639.53 235.327C1640.38 235.327 1640.95 234.827 1640.67 234.006L1640.54 233.637H1639.08C1638.35 233.637 1637.95 233.934 1638.14 234.482ZM1650.67 229.183H1646.5L1648.95 236.292H1647.45L1644.56 227.909H1650.23L1650.67 229.183ZM1654.97 227.766C1657.46 227.766 1659.74 229.564 1660.61 232.101C1661.49 234.637 1660.44 236.435 1657.95 236.435C1655.46 236.435 1653.18 234.637 1652.3 232.101C1651.43 229.564 1652.47 227.766 1654.97 227.766ZM1653.84 232.101C1654.45 233.875 1655.87 235.137 1657.5 235.137C1659.14 235.137 1659.7 233.875 1659.09 232.101C1658.48 230.326 1657.05 229.064 1655.41 229.064C1653.78 229.064 1653.23 230.326 1653.84 232.101Z" fill="white"/>
</g>
<g id="Mask group">
<path id="7" d="M445.495 253.052L242.61 487.221H188.911L390.628 256.143H245.226L260.7 215.183H459.801L445.495 253.052Z" fill="white"/>
</g>
<g id="safonovo-podvorye-bolshakovyh">
<g id="Vector_67">
<path d="M1593 958H1668.81L1653.69 897L1579 897L1593 958Z" fill="#FF9100"/>
<path d="M1579.71 897.562L1593.45 957.438H1668.09L1653.25 897.562H1579.71Z" stroke="white" stroke-opacity="0.25" stroke-width="1.12308"/>
</g>
<path id="&#208;&#161;&#208;&#176;&#209;&#132;&#208;&#190;&#208;&#189;&#208;&#190;&#208;&#178;&#208;&#190; &#208;&#191;&#208;&#190;&#208;&#180;&#208;&#178;&#208;&#190;&#209;&#128;&#209;&#140;&#208;&#181; &#208;&#145;&#208;&#190;&#208;&#187;&#209;&#140;&#209;&#136;&#208;&#176;&#208;&#186;&#208;&#190;&#208;&#178;&#209;&#139;&#209;&#133;" d="M1591.83 905.867C1591.85 906.837 1591.2 908.029 1589.45 908.029C1587.77 908.029 1586.37 906.739 1586.1 904.79C1585.83 902.886 1586.83 901.552 1588.54 901.552C1590.12 901.552 1591.16 902.53 1591.5 903.705H1590.44C1590.17 903.064 1589.6 902.522 1588.68 902.522C1587.59 902.522 1587 903.438 1587.19 904.79C1587.38 906.116 1588.21 907.059 1589.32 907.059C1590.3 907.059 1590.72 906.392 1590.75 905.867H1591.83ZM1595.38 904.915C1595.3 904.381 1594.88 904.114 1594.36 904.114C1593.83 904.114 1593.59 904.354 1593.53 904.639H1592.56C1592.59 903.901 1593.16 903.278 1594.28 903.278C1595.41 903.278 1596.24 903.874 1596.38 904.933L1596.8 907.922H1595.85L1595.78 907.406C1595.52 907.806 1595.04 908.029 1594.45 908.029C1593.56 908.029 1592.78 907.495 1592.66 906.605C1592.53 905.707 1593.16 905.173 1594.3 905.173H1595.41L1595.38 904.915ZM1593.69 906.57C1593.74 906.979 1594.1 907.201 1594.56 907.201C1595.17 907.201 1595.64 906.828 1595.56 906.214L1595.52 905.938H1594.48C1593.96 905.938 1593.63 906.161 1593.69 906.57ZM1600.51 903.287C1601.91 903.331 1603.05 904.265 1603.24 905.653C1603.44 907.041 1602.56 907.976 1601.18 908.02L1601.4 909.622H1600.39L1600.17 908.02C1598.76 907.976 1597.62 907.041 1597.43 905.653C1597.23 904.265 1598.11 903.331 1599.5 903.287L1599.27 901.605H1600.27L1600.51 903.287ZM1598.46 905.653C1598.59 906.579 1599.29 907.121 1600.05 907.139L1599.63 904.168C1598.88 904.185 1598.33 904.728 1598.46 905.653ZM1601.05 907.139C1601.79 907.121 1602.35 906.579 1602.22 905.653C1602.09 904.728 1601.39 904.185 1600.63 904.168L1601.05 907.139ZM1605.88 903.278C1607.23 903.278 1608.27 904.248 1608.47 905.653C1608.66 907.059 1607.89 908.029 1606.55 908.029C1605.2 908.029 1604.15 907.059 1603.96 905.653C1603.76 904.248 1604.53 903.278 1605.88 903.278ZM1605 905.653C1605.12 906.525 1605.66 907.13 1606.42 907.13C1607.17 907.13 1607.55 906.525 1607.42 905.653C1607.3 904.781 1606.76 904.176 1606 904.176C1605.25 904.176 1604.88 904.781 1605 905.653ZM1610.79 907.922H1609.77L1609.13 903.385H1610.15L1610.4 905.128H1612.36L1612.12 903.385H1613.14L1613.78 907.922H1612.76L1612.49 906.027H1610.52L1610.79 907.922ZM1616.36 903.278C1617.71 903.278 1618.75 904.248 1618.95 905.653C1619.15 907.059 1618.38 908.029 1617.03 908.029C1615.68 908.029 1614.64 907.059 1614.44 905.653C1614.24 904.248 1615.01 903.278 1616.36 903.278ZM1615.48 905.653C1615.61 906.525 1616.15 907.13 1616.9 907.13C1617.66 907.13 1618.03 906.525 1617.91 905.653C1617.79 904.781 1617.24 904.176 1616.49 904.176C1615.73 904.176 1615.36 904.781 1615.48 905.653ZM1620.25 907.922L1619.61 903.385H1621.67C1622.69 903.385 1623.25 903.901 1623.34 904.559C1623.42 905.084 1623.16 905.404 1622.84 905.529C1623.29 905.644 1623.74 906.009 1623.82 906.632C1623.93 907.362 1623.44 907.922 1622.4 907.922H1620.25ZM1621.15 907.139H1622.16C1622.63 907.139 1622.84 906.917 1622.79 906.552C1622.74 906.187 1622.47 905.983 1622 905.983H1620.98L1621.15 907.139ZM1620.88 905.217H1621.8C1622.21 905.217 1622.4 905.013 1622.36 904.684C1622.31 904.345 1622.07 904.168 1621.65 904.168H1620.73L1620.88 905.217ZM1626.33 903.278C1627.68 903.278 1628.72 904.248 1628.92 905.653C1629.12 907.059 1628.35 908.029 1627 908.029C1625.65 908.029 1624.61 907.059 1624.41 905.653C1624.21 904.248 1624.98 903.278 1626.33 903.278ZM1625.45 905.653C1625.57 906.525 1626.12 907.13 1626.87 907.13C1627.63 907.13 1628 906.525 1627.88 905.653C1627.75 904.781 1627.21 904.176 1626.46 904.176C1625.7 904.176 1625.33 904.781 1625.45 905.653ZM1587.35 912.297H1591.34L1591.98 916.835H1590.95L1590.44 913.187H1588.5L1589.01 916.835H1587.99L1587.35 912.297ZM1594.56 912.19C1595.9 912.19 1596.95 913.16 1597.15 914.566C1597.34 915.972 1596.57 916.941 1595.22 916.941C1593.88 916.941 1592.83 915.972 1592.64 914.566C1592.44 913.16 1593.21 912.19 1594.56 912.19ZM1593.68 914.566C1593.8 915.438 1594.34 916.043 1595.1 916.043C1595.85 916.043 1596.23 915.438 1596.1 914.566C1595.98 913.694 1595.44 913.089 1594.68 913.089C1593.93 913.089 1593.56 913.694 1593.68 914.566ZM1602.98 915.945L1603.27 917.973H1602.28L1602.12 916.835H1598.89L1599.05 917.973H1598.06L1597.77 915.945H1598.14C1598.42 915.776 1598.5 915.224 1598.45 914.53L1598.31 912.297H1601.81L1602.32 915.945H1602.98ZM1599.25 915.945H1601.29L1600.91 913.187H1599.34L1599.43 914.566C1599.46 915.126 1599.48 915.633 1599.25 915.945ZM1603.98 916.835L1603.34 912.297H1605.4C1606.42 912.297 1606.98 912.813 1607.08 913.471C1607.15 913.996 1606.89 914.317 1606.57 914.441C1607.02 914.557 1607.47 914.922 1607.56 915.544C1607.66 916.274 1607.17 916.835 1606.13 916.835H1603.98ZM1604.88 916.052H1605.89C1606.36 916.052 1606.57 915.829 1606.52 915.464C1606.47 915.1 1606.2 914.895 1605.73 914.895H1604.71L1604.88 916.052ZM1604.61 914.13H1605.53C1605.94 914.13 1606.13 913.925 1606.09 913.596C1606.04 913.258 1605.8 913.08 1605.38 913.08H1604.46L1604.61 914.13ZM1610.06 912.19C1611.41 912.19 1612.45 913.16 1612.65 914.566C1612.85 915.972 1612.08 916.941 1610.73 916.941C1609.38 916.941 1608.34 915.972 1608.14 914.566C1607.94 913.16 1608.71 912.19 1610.06 912.19ZM1609.18 914.566C1609.3 915.438 1609.85 916.043 1610.6 916.043C1611.36 916.043 1611.73 915.438 1611.61 914.566C1611.49 913.694 1610.94 913.089 1610.19 913.089C1609.43 913.089 1609.06 913.694 1609.18 914.566ZM1615.7 912.19C1616.77 912.19 1617.85 913.009 1618.07 914.566C1618.29 916.123 1617.43 916.941 1616.34 916.941C1615.68 916.941 1615.17 916.657 1614.9 916.327L1615.21 918.534H1614.19L1613.31 912.297H1614.3L1614.38 912.884C1614.55 912.519 1614.98 912.19 1615.7 912.19ZM1614.63 914.584C1614.75 915.473 1615.32 916.043 1616.05 916.043C1616.77 916.043 1617.16 915.455 1617.03 914.566C1616.91 913.685 1616.35 913.089 1615.63 913.089C1614.9 913.089 1614.5 913.658 1614.62 914.548L1614.63 914.584ZM1620.85 913.676C1621.88 913.676 1622.62 914.343 1622.75 915.242C1622.88 916.149 1622.32 916.835 1621.29 916.835H1619.36L1618.72 912.297H1619.74L1619.93 913.676H1620.85ZM1620.26 915.989H1621.05C1621.55 915.989 1621.79 915.66 1621.73 915.242C1621.68 914.824 1621.35 914.53 1620.84 914.53H1620.05L1620.26 915.989ZM1623.35 914.575C1623.14 913.098 1623.92 912.19 1625.21 912.19C1626.47 912.19 1627.41 913.071 1627.6 914.441L1627.66 914.859H1624.44L1624.44 914.877C1624.54 915.562 1625.11 916.096 1625.84 916.096C1626.39 916.096 1626.66 915.811 1626.71 915.607H1627.71C1627.68 916.185 1627.19 916.941 1625.94 916.941C1624.59 916.941 1623.55 916.043 1623.35 914.575ZM1624.34 914.094H1626.54C1626.41 913.436 1625.96 913.035 1625.32 913.035C1624.68 913.035 1624.31 913.445 1624.34 914.094ZM1591.2 921.903C1592.49 921.903 1593.38 922.669 1593.54 923.816C1593.7 924.92 1593.01 925.747 1591.75 925.747H1589.35L1588.47 919.483H1592.47L1592.61 920.435H1589.67L1589.88 921.903H1591.2ZM1590.29 924.822H1591.47C1592.17 924.822 1592.54 924.43 1592.45 923.807C1592.36 923.185 1591.89 922.802 1591.19 922.802H1590L1590.29 924.822ZM1596.15 921.103C1597.5 921.103 1598.54 922.072 1598.74 923.478C1598.94 924.884 1598.17 925.854 1596.82 925.854C1595.47 925.854 1594.43 924.884 1594.23 923.478C1594.03 922.072 1594.8 921.103 1596.15 921.103ZM1595.27 923.478C1595.4 924.35 1595.94 924.955 1596.69 924.955C1597.45 924.955 1597.82 924.35 1597.7 923.478C1597.58 922.606 1597.03 922.001 1596.28 922.001C1595.52 922.001 1595.15 922.606 1595.27 923.478ZM1599.49 925.765L1599.36 924.875H1599.51C1600.02 924.875 1600.15 924.617 1600.11 923.932L1599.95 921.209H1603.32L1603.96 925.747H1602.93L1602.42 922.099H1600.98L1601.09 924.003C1601.17 925.258 1600.77 925.765 1599.76 925.765H1599.49ZM1606.69 922.588C1607.73 922.588 1608.47 923.256 1608.6 924.154C1608.72 925.062 1608.16 925.747 1607.14 925.747H1605.21L1604.57 921.209H1605.58L1605.78 922.588H1606.69ZM1606.1 924.902H1606.89C1607.4 924.902 1607.64 924.573 1607.58 924.154C1607.52 923.736 1607.19 923.443 1606.69 923.443H1605.9L1606.1 924.902ZM1609.77 925.747L1609.13 921.209H1610.16L1610.67 924.857H1612.18L1611.67 921.209H1612.69L1613.2 924.857H1614.71L1614.2 921.209H1615.22L1615.86 925.747H1609.77ZM1619.37 922.74C1619.29 922.206 1618.87 921.939 1618.36 921.939C1617.83 921.939 1617.58 922.179 1617.52 922.464H1616.55C1616.58 921.725 1617.15 921.103 1618.28 921.103C1619.4 921.103 1620.23 921.699 1620.38 922.758L1620.8 925.747H1619.85L1619.77 925.231C1619.51 925.631 1619.03 925.854 1618.44 925.854C1617.55 925.854 1616.78 925.32 1616.65 924.43C1616.52 923.532 1617.15 922.998 1618.29 922.998H1619.4L1619.37 922.74ZM1617.68 924.395C1617.74 924.804 1618.09 925.026 1618.55 925.026C1619.16 925.026 1619.64 924.653 1619.55 924.039L1619.51 923.763H1618.47C1617.95 923.763 1617.62 923.985 1617.68 924.395ZM1623.02 925.747H1622L1621.36 921.209H1622.39L1622.65 923.096L1624.15 921.209H1625.36L1623.68 923.327L1626.03 925.747H1624.79L1622.73 923.629L1623.02 925.747ZM1627.86 921.103C1629.21 921.103 1630.25 922.072 1630.45 923.478C1630.65 924.884 1629.88 925.854 1628.53 925.854C1627.18 925.854 1626.14 924.884 1625.94 923.478C1625.74 922.072 1626.51 921.103 1627.86 921.103ZM1626.98 923.478C1627.1 924.35 1627.65 924.955 1628.4 924.955C1629.16 924.955 1629.53 924.35 1629.41 923.478C1629.29 922.606 1628.74 922.001 1627.99 922.001C1627.23 922.001 1626.86 922.606 1626.98 923.478ZM1631.75 925.747L1631.11 921.209H1633.17C1634.19 921.209 1634.75 921.725 1634.84 922.384C1634.92 922.909 1634.66 923.229 1634.34 923.354C1634.79 923.469 1635.24 923.834 1635.32 924.457C1635.43 925.186 1634.94 925.747 1633.9 925.747H1631.75ZM1632.64 924.964H1633.66C1634.13 924.964 1634.34 924.742 1634.29 924.377C1634.24 924.012 1633.96 923.807 1633.5 923.807H1632.48L1632.64 924.964ZM1632.37 923.042H1633.3C1633.7 923.042 1633.9 922.838 1633.85 922.508C1633.81 922.17 1633.57 921.992 1633.15 921.992H1632.23L1632.37 923.042ZM1641.06 921.209L1641.7 925.747H1640.68L1640.04 921.209H1641.06ZM1636.49 925.747L1635.85 921.209H1636.86L1637.06 922.588H1637.97C1639.01 922.588 1639.75 923.256 1639.87 924.154C1640 925.062 1639.44 925.747 1638.42 925.747H1636.49ZM1637.38 924.902H1638.17C1638.68 924.902 1638.92 924.573 1638.86 924.154C1638.8 923.736 1638.47 923.443 1637.97 923.443H1637.18L1637.38 924.902ZM1642.48 925.747L1643.76 923.469L1641.86 921.209H1643.03L1644.33 922.802L1645.15 921.209H1646.29L1645.04 923.505L1646.94 925.747H1645.76L1644.47 924.172L1643.62 925.747H1642.48Z" fill="white"/>
</g>
</g>
<defs>
<linearGradient id="paint0_linear_1141_2608" x1="1314.56" y1="742.887" x2="1179.88" y2="748.63" gradientUnits="userSpaceOnUse">
<stop stop-color="#666666"/>
<stop offset="1" stop-color="#E6E6E6"/>
</linearGradient>
<linearGradient id="paint1_linear_1141_2608" x1="1364.73" y1="734.561" x2="1217.93" y2="740.82" gradientUnits="userSpaceOnUse">
<stop stop-color="#666666"/>
<stop offset="1" stop-color="#E6E6E6"/>
</linearGradient>
<linearGradient id="paint2_linear_1141_2608" x1="1418.46" y1="726.081" x2="1259.67" y2="732.851" gradientUnits="userSpaceOnUse">
<stop stop-color="#666666"/>
<stop offset="1" stop-color="#E6E6E6"/>
</linearGradient>
<linearGradient id="paint3_linear_1141_2608" x1="1475.75" y1="717.45" x2="1305.11" y2="724.726" gradientUnits="userSpaceOnUse">
<stop stop-color="#666666"/>
<stop offset="1" stop-color="#E6E6E6"/>
</linearGradient>
<linearGradient id="paint4_linear_1141_2608" x1="1536.61" y1="708.667" x2="1354.23" y2="716.443" gradientUnits="userSpaceOnUse">
<stop stop-color="#666666"/>
<stop offset="1" stop-color="#E6E6E6"/>
</linearGradient>
<linearGradient id="paint5_linear_1141_2608" x1="1601.04" y1="699.732" x2="1407.05" y2="708.003" gradientUnits="userSpaceOnUse">
<stop stop-color="#666666"/>
<stop offset="1" stop-color="#E6E6E6"/>
</linearGradient>
<linearGradient id="paint6_linear_1141_2608" x1="1669.02" y1="690.645" x2="1463.55" y2="699.406" gradientUnits="userSpaceOnUse">
<stop stop-color="#666666"/>
<stop offset="1" stop-color="#E6E6E6"/>
</linearGradient>
<linearGradient id="paint7_linear_1141_2608" x1="1625.47" y1="602.856" x2="1747.84" y2="593.524" gradientUnits="userSpaceOnUse">
<stop stop-color="#8901FF"/>
<stop offset="1" stop-color="#C000FF"/>
</linearGradient>
<linearGradient id="paint8_linear_1141_2608" x1="1629.25" y1="478.233" x2="1634.22" y2="609.365" gradientUnits="userSpaceOnUse">
<stop stop-color="#8C8C8C"/>
<stop offset="1" stop-color="#E6E6E6"/>
</linearGradient>
<linearGradient id="paint9_linear_1141_2608" x1="1626.53" y1="430.181" x2="1631.62" y2="561.109" gradientUnits="userSpaceOnUse">
<stop stop-color="#808080"/>
<stop offset="1" stop-color="#E6E6E6"/>
</linearGradient>
<linearGradient id="paint10_linear_1141_2608" x1="1621.26" y1="379.762" x2="1626.03" y2="505.801" gradientUnits="userSpaceOnUse">
<stop stop-color="#737373"/>
<stop offset="1" stop-color="#E6E6E6"/>
</linearGradient>
<linearGradient id="paint11_linear_1141_2608" x1="1617.02" y1="325.998" x2="1621.85" y2="451.89" gradientUnits="userSpaceOnUse">
<stop stop-color="#666666"/>
<stop offset="1" stop-color="#E6E6E6"/>
</linearGradient>
<linearGradient id="paint12_linear_1141_2608" x1="525.601" y1="552.637" x2="651.014" y2="509.139" gradientUnits="userSpaceOnUse">
<stop stop-color="#8901FF"/>
<stop offset="1" stop-color="#C000FF"/>
</linearGradient>
</defs>
</svg>
