<svg width="170" height="43" viewBox="0 0 170 43" fill="none" xmlns="http://www.w3.org/2000/svg">
<path d="M23.3656 1.37891C53.2021 1.37891 115.96 1.37891 146.275 1.37891C176.59 1.37891 176.59 41.581 146.275 41.581C115.96 41.581 53.2021 41.581 23.3656 41.581C-6.47084 41.581 -6.47083 1.37891 23.3656 1.37891Z" fill="#F40000"/>
<path d="M26.5156 12.1689C28.6161 12.1689 30.2665 13.7193 30.2665 16.545V29.8981H28.241V23.5466H20.0391L16.5133 29.8981H14.1877L22.4397 14.9946C23.4649 13.1442 24.8402 12.1689 26.5156 12.1689ZM21.1144 21.5961H28.241V16.62C28.241 14.9696 27.4658 14.1694 26.4656 14.1694C25.5654 14.1694 24.9402 14.7195 24.2901 15.8948L21.1144 21.5961ZM37.6802 14.1194C35.6547 14.1194 34.0543 15.6948 34.0543 17.8703C34.0543 19.9958 35.6547 21.5711 37.6802 21.5711C39.7056 21.5711 41.306 19.9958 41.306 17.8703C41.306 15.6948 39.7056 14.1194 37.6802 14.1194ZM32.0289 29.8981V18.1203C32.0289 14.6445 34.4044 12.1689 37.7052 12.1689C40.9309 12.1689 43.3815 14.5945 43.3815 17.8203C43.3815 20.6459 41.356 22.8464 38.7054 23.3215L47.0073 29.8981H43.9316L34.0543 22.1713V29.8981H32.0289ZM43.5402 12.394H55.6931V14.3445H50.642V29.8981H48.6164V14.3445H43.5402V12.394ZM64.0474 27.9476V29.8981H57.5709C54.3951 29.8981 52.9448 28.0726 52.9448 26.0972C52.9448 24.6468 53.5449 23.6216 54.4951 21.9962L60.0964 12.394H62.422L56.2706 22.9964C55.4954 24.3218 54.9953 25.0219 54.9953 25.9221C54.9953 26.9474 55.7204 27.9476 57.8209 27.9476H64.0474Z" fill="white"/>
<path d="M67.2511 25.8472V27.8726H65.2257V25.8472H67.2511ZM63.2002 25.8472V16.445H65.2257V19.6457H77.5035V16.445H79.529V21.6712H65.2257V25.8472H63.2002ZM65.2257 16.445V14.4195H67.2511V16.445H65.2257ZM67.2511 29.8981V27.8726H77.5035V29.8981H67.2511ZM67.2511 14.4195V12.394H75.478V14.4195H67.2511ZM75.478 16.445V14.4195H77.5035V16.445H75.478ZM77.5035 27.8726V25.8472H79.529V27.8726H77.5035Z" fill="white"/>
<path d="M86.4167 29.8981H81.2405V12.394H85.4164C88.6172 12.394 90.5927 14.3945 90.5927 16.8451C90.5927 18.1954 89.9675 19.3707 88.9173 20.1208C90.9677 20.821 92.343 22.5214 92.343 24.7469C92.343 27.7226 89.8925 29.8981 86.4167 29.8981ZM83.2659 27.9477H86.3417C88.7172 27.9477 90.2426 26.6224 90.2426 24.7469C90.2426 22.8715 88.7172 21.5962 86.5917 21.5962H83.2659V27.9477ZM83.2659 19.6457H85.4665C87.2919 19.6457 88.5172 18.5455 88.5172 16.9701C88.5172 15.3697 87.2919 14.3445 85.2164 14.3445H83.2659V19.6457Z" fill="white"/>
<path d="M93.5171 25.1971C93.5171 18.9456 98.9684 12.144 103.92 12.144C106.17 12.144 107.52 13.6694 107.52 15.5948C107.52 19.5708 100.469 22.7965 95.7426 23.7217C95.6426 24.2469 95.5926 24.747 95.5926 25.1971C95.5926 27.1475 96.6928 28.1478 98.7183 28.1478C102.869 28.1478 107.07 25.0971 108.821 20.8711H110.846C108.596 26.9725 103.644 30.1482 98.7183 30.1482C95.5426 30.1482 93.5171 28.2478 93.5171 25.1971ZM96.3678 21.5712C100.444 20.721 105.445 17.7453 105.445 15.5948C105.445 14.7446 104.895 14.1695 103.92 14.1695C100.744 14.1695 97.7431 17.9954 96.3678 21.5712Z" fill="white"/>
<path d="M115.886 29.8981H111.635V12.394H115.886C121.112 12.394 124.963 16.0699 124.963 21.1461C124.963 26.2223 121.112 29.8981 115.886 29.8981ZM113.661 27.9477H115.886C120.012 27.9477 122.863 25.097 122.863 21.1461C122.863 17.1952 120.012 14.3445 115.886 14.3445H113.661V27.9477Z" fill="white"/>
<path d="M126.281 12.394H135.433V14.3195H128.306V19.6707H135.433V21.5962H128.306C128.373 22.9298 128.756 24.0801 129.456 25.047C130.156 25.9972 131.023 26.7224 132.057 27.2225C133.107 27.7059 134.191 27.9477 135.308 27.9477H138.883V29.8981H135.308C133.674 29.8981 132.165 29.5313 130.782 28.7979C129.398 28.0477 128.298 27.0141 127.481 25.6971C126.681 24.3635 126.281 22.8632 126.281 21.1961V12.394Z" fill="white"/>
<path d="M143.029 30.1232C141.079 30.1232 139.553 28.7479 139.553 26.0973V12.394H141.579V26.0973C141.579 27.5226 142.254 28.1227 143.079 28.1227C143.804 28.1227 144.454 27.6226 145.18 26.2223L152.281 12.394H154.607L146.905 27.3725C145.88 29.373 144.504 30.1232 143.029 30.1232Z" fill="white"/>
</svg>
