<svg width="28" height="29" viewBox="0 0 28 29" fill="none" xmlns="http://www.w3.org/2000/svg">
<path d="M27.7292 13.728V27.4571C27.7292 27.7606 27.6087 28.0516 27.3941 28.2661C27.1795 28.4807 26.8885 28.6012 26.5851 28.6012H18.5765C18.273 28.6012 17.982 28.4807 17.7675 28.2661C17.5529 28.0516 17.4324 27.7606 17.4324 27.4571V20.0206C17.4324 19.8688 17.3721 19.7233 17.2648 19.6161C17.1575 19.5088 17.012 19.4485 16.8603 19.4485H11.1399C10.9882 19.4485 10.8427 19.5088 10.7354 19.6161C10.6281 19.7233 10.5678 19.8688 10.5678 20.0206V27.4571C10.5678 27.7606 10.4473 28.0516 10.2327 28.2661C10.0182 28.4807 9.72716 28.6012 9.42373 28.6012H1.41509C1.11166 28.6012 0.820652 28.4807 0.606093 28.2661C0.391534 28.0516 0.270996 27.7606 0.270996 27.4571V13.728C0.271277 13.1213 0.512538 12.5395 0.94172 12.1106L12.3826 0.669664C12.8117 0.24087 13.3935 0 14.0001 0C14.6067 0 15.1885 0.24087 15.6176 0.669664L27.0585 12.1106C27.4877 12.5395 27.7289 13.1213 27.7292 13.728Z" fill="#F40000"/>
</svg>
