<svg width="56" height="56" viewBox="0 0 56 56" fill="none" xmlns="http://www.w3.org/2000/svg">
<mask id="mask0_230_826" style="mask-type:luminance" maskUnits="userSpaceOnUse" x="0" y="0" width="56" height="56">
<path d="M28 0C43.4656 0 56 12.5367 56 28C56 43.4656 43.4633 56 28 56C12.5344 56 0 43.4633 0 28C0 12.5344 12.5367 0 28 0Z" fill="white"/>
</mask>
<g mask="url(#mask0_230_826)">
<path d="M28 0C43.4656 0 56 12.5367 56 28C56 43.4656 43.4633 56 28 56C12.5344 56 0 43.4633 0 28C0 12.5344 12.5367 0 28 0Z" fill="white"/>
<path d="M27.9546 -4.81519C14.2305 -4.81519 10.2159 -4.80162 9.43566 -4.73603C6.61983 -4.50081 4.867 -4.05751 2.95811 -3.10759C1.48574 -2.37706 0.325476 -1.52892 -0.81895 -0.341518C-2.90425 1.8252 -4.16853 4.4895 -4.6254 7.6559C-4.84705 9.19386 -4.91264 9.50598 -4.92621 17.3609C-4.93074 19.98 -4.92621 23.4246 -4.92621 28.0452C-4.92621 41.7625 -4.91038 45.7725 -4.84479 46.5528C-4.61636 49.294 -4.18664 51.0197 -3.27743 52.906C-1.53817 56.5179 1.78428 59.2275 5.69704 60.2407C7.05181 60.589 8.54907 60.7813 10.4693 60.874C11.2835 60.9102 19.5817 60.9351 27.8844 60.9351C36.1872 60.9351 44.4899 60.926 45.2838 60.8853C47.5093 60.7812 48.8008 60.6071 50.2302 60.2384C54.1701 59.2229 57.4314 56.5519 59.2046 52.8901C60.098 51.0491 60.5503 49.2578 60.7539 46.6614C60.7991 46.096 60.8172 37.0627 60.8172 28.043C60.8172 19.0233 60.7969 10.0058 60.7516 9.44039C60.5436 6.80097 60.0912 5.02552 59.1707 3.1483C58.4153 1.6126 57.5762 0.465912 56.3571 -0.707916C54.1814 -2.78643 51.5216 -4.05073 48.3529 -4.50759C46.8172 -4.72924 46.5119 -4.79483 38.6547 -4.8084H27.9546V-4.81519Z" fill="url(#paint0_radial_230_826)"/>
<path d="M27.9546 -4.81519C14.2305 -4.81519 10.2159 -4.80162 9.43566 -4.73603C6.61983 -4.50081 4.867 -4.05751 2.95811 -3.10759C1.48574 -2.37706 0.325476 -1.52892 -0.81895 -0.341518C-2.90425 1.8252 -4.16853 4.4895 -4.6254 7.6559C-4.84705 9.19386 -4.91264 9.50598 -4.92621 17.3609C-4.93074 19.98 -4.92621 23.4246 -4.92621 28.0452C-4.92621 41.7625 -4.91038 45.7725 -4.84479 46.5528C-4.61636 49.294 -4.18664 51.0197 -3.27743 52.906C-1.53817 56.5179 1.78428 59.2275 5.69704 60.2407C7.05181 60.589 8.54907 60.7813 10.4693 60.874C11.2835 60.9102 19.5817 60.9351 27.8844 60.9351C36.1872 60.9351 44.4899 60.926 45.2838 60.8853C47.5093 60.7812 48.8008 60.6071 50.2302 60.2384C54.1701 59.2229 57.4314 56.5519 59.2046 52.8901C60.098 51.0491 60.5503 49.2578 60.7539 46.6614C60.7991 46.096 60.8172 37.0627 60.8172 28.043C60.8172 19.0233 60.7969 10.0058 60.7516 9.44039C60.5436 6.80097 60.0912 5.02552 59.1707 3.1483C58.4153 1.6126 57.5762 0.465912 56.3571 -0.707916C54.1814 -2.78643 51.5216 -4.05073 48.3529 -4.50759C46.8172 -4.72924 46.5119 -4.79483 38.6547 -4.8084H27.9546V-4.81519Z" fill="url(#paint1_radial_230_826)"/>
<path d="M27.9546 -4.81519C14.2305 -4.81519 10.2159 -4.80162 9.43566 -4.73603C6.61983 -4.50081 4.867 -4.05751 2.95811 -3.10759C1.48574 -2.37706 0.325476 -1.52892 -0.81895 -0.341518C-2.90425 1.8252 -4.16853 4.4895 -4.6254 7.6559C-4.84705 9.19386 -4.91264 9.50598 -4.92621 17.3609C-4.93074 19.98 -4.92621 23.4246 -4.92621 28.0452C-4.92621 41.7625 -4.91038 45.7725 -4.84479 46.5528C-4.61636 49.294 -4.18664 51.0197 -3.27743 52.906C-1.53817 56.5179 1.78428 59.2275 5.69704 60.2407C7.05181 60.589 8.54907 60.7813 10.4693 60.874C11.2835 60.9102 19.5817 60.9351 27.8844 60.9351C36.1872 60.9351 44.4899 60.926 45.2838 60.8853C47.5093 60.7812 48.8008 60.6071 50.2302 60.2384C54.1701 59.2229 57.4314 56.5519 59.2046 52.8901C60.098 51.0491 60.5503 49.2578 60.7539 46.6614C60.7991 46.096 60.8172 37.0627 60.8172 28.043C60.8172 19.0233 60.7969 10.0058 60.7516 9.44039C60.5436 6.80097 60.0912 5.02552 59.1707 3.1483C58.4153 1.6126 57.5762 0.465912 56.3571 -0.707916C54.1814 -2.78643 51.5216 -4.05073 48.3529 -4.50759C46.8172 -4.72924 46.5119 -4.79483 38.6547 -4.8084H27.9546V-4.81519Z" fill="url(#paint2_radial_230_826)"/>
<path d="M27.9546 -4.81519C14.2305 -4.81519 10.2159 -4.80162 9.43566 -4.73603C6.61983 -4.50081 4.867 -4.05751 2.95811 -3.10759C1.48574 -2.37706 0.325476 -1.52892 -0.81895 -0.341518C-2.90425 1.8252 -4.16853 4.4895 -4.6254 7.6559C-4.84705 9.19386 -4.91264 9.50598 -4.92621 17.3609C-4.93074 19.98 -4.92621 23.4246 -4.92621 28.0452C-4.92621 41.7625 -4.91038 45.7725 -4.84479 46.5528C-4.61636 49.294 -4.18664 51.0197 -3.27743 52.906C-1.53817 56.5179 1.78428 59.2275 5.69704 60.2407C7.05181 60.589 8.54907 60.7813 10.4693 60.874C11.2835 60.9102 19.5817 60.9351 27.8844 60.9351C36.1872 60.9351 44.4899 60.926 45.2838 60.8853C47.5093 60.7812 48.8008 60.6071 50.2302 60.2384C54.1701 59.2229 57.4314 56.5519 59.2046 52.8901C60.098 51.0491 60.5503 49.2578 60.7539 46.6614C60.7991 46.096 60.8172 37.0627 60.8172 28.043C60.8172 19.0233 60.7969 10.0058 60.7516 9.44039C60.5436 6.80097 60.0912 5.02552 59.1707 3.1483C58.4153 1.6126 57.5762 0.465912 56.3571 -0.707916C54.1814 -2.78643 51.5216 -4.05073 48.3529 -4.50759C46.8172 -4.72924 46.5119 -4.79483 38.6547 -4.8084H27.9546V-4.81519Z" fill="url(#paint3_radial_230_826)"/>
<path d="M27.8782 13.5757C23.9078 13.5757 23.4106 13.592 21.8514 13.6643C20.2945 13.7366 19.2324 13.9814 18.3034 14.3429C17.3417 14.716 16.5271 15.215 15.7148 16.0265C14.9025 16.838 14.403 17.6518 14.0272 18.6102C13.6654 19.5382 13.418 20.5992 13.348 22.1523C13.278 23.7099 13.2593 24.2066 13.2593 28.1685C13.2593 32.1303 13.278 32.627 13.348 34.1847C13.4203 35.7377 13.6654 36.7987 14.0272 37.7267C14.4007 38.6875 14.9002 39.5013 15.7125 40.3128C16.5248 41.1243 17.3394 41.6233 18.3011 41.9964C19.2301 42.3578 20.2945 42.6027 21.849 42.675C23.4083 42.7449 23.9055 42.7636 27.8759 42.7636C31.8463 42.7636 32.3435 42.7472 33.9027 42.675C35.4596 42.6027 36.5217 42.3578 37.453 41.9964C38.4147 41.6233 39.2293 41.1243 40.0416 40.3128C40.8539 39.5013 41.3534 38.6875 41.7292 37.7291C42.0887 36.801 42.3361 35.74 42.4085 34.187C42.4785 32.6293 42.4972 32.135 42.4972 28.1708C42.4972 24.2066 42.4785 23.7099 42.4085 22.1546C42.3361 20.6016 42.0887 19.5406 41.7292 18.6125C41.3558 17.6518 40.8562 16.838 40.0416 16.0265C39.2293 15.215 38.4147 14.716 37.453 14.3429C36.5217 13.9814 35.4573 13.7366 33.9027 13.6643C32.3435 13.5943 31.8463 13.5757 27.8759 13.5757H27.8806H27.8782ZM26.5664 16.206C26.9562 16.206 27.3904 16.206 27.8782 16.206C31.781 16.206 32.2431 16.22 33.786 16.29C35.2122 16.3553 35.9848 16.5931 36.5007 16.7936C37.1822 17.0571 37.6701 17.3743 38.1813 17.885C38.6925 18.3956 39.0099 18.883 39.276 19.5639C39.4767 20.0769 39.7148 20.8488 39.7802 22.2735C39.8502 23.8125 39.8665 24.2743 39.8665 28.1685C39.8665 32.0627 39.8502 32.5244 39.7802 34.0634C39.7148 35.4858 39.4767 36.2577 39.276 36.773C39.0122 37.4539 38.6948 37.9389 38.1813 38.4496C37.6701 38.9603 37.1846 39.2774 36.5007 39.5409C35.9872 39.7415 35.2122 39.9793 33.786 40.0446C32.2455 40.1146 31.781 40.1309 27.8782 40.1309C23.9755 40.1309 23.5133 40.1146 21.9704 40.0446C20.5442 39.9793 19.7716 39.7415 19.2558 39.5409C18.5742 39.2774 18.0864 38.9603 17.5752 38.4496C17.064 37.9389 16.7465 37.4539 16.4804 36.773C16.2797 36.26 16.0416 35.4882 15.9763 34.0634C15.9062 32.5244 15.8922 32.0627 15.8922 28.1661C15.8922 24.2696 15.9062 23.8102 15.9763 22.2712C16.0416 20.8488 16.2797 20.0769 16.4804 19.5616C16.7465 18.8807 17.0616 18.3933 17.5752 17.8826C18.0864 17.372 18.5742 17.0548 19.2558 16.7913C19.7716 16.5908 20.5442 16.3529 21.9704 16.2876C23.3196 16.227 23.8424 16.2084 26.5664 16.206ZM35.6814 18.6288C34.7127 18.6288 33.9261 19.4123 33.9261 20.38C33.9261 21.3478 34.7127 22.1313 35.6814 22.1313C36.6501 22.1313 37.4343 21.3478 37.4343 20.38C37.4343 19.4123 36.6477 18.6288 35.6814 18.6288ZM27.8782 20.6739C23.7327 20.6739 20.3715 24.0294 20.3715 28.1685C20.3715 32.3075 23.7327 35.6607 27.8782 35.6607C32.0237 35.6607 35.3849 32.3075 35.3849 28.1685C35.3849 24.0294 32.0237 20.6739 27.8782 20.6739ZM27.8782 23.3042C30.5695 23.3042 32.752 25.4822 32.752 28.1685C32.752 30.8548 30.5695 33.0327 27.8782 33.0327C25.1869 33.0327 23.0045 30.8548 23.0045 28.1685C23.0045 25.4822 25.1869 23.3042 27.8782 23.3042Z" fill="white"/>
</g>
<defs>
<radialGradient id="paint0_radial_230_826" cx="0" cy="0" r="1" gradientUnits="userSpaceOnUse" gradientTransform="translate(58.5905 26.4631) rotate(164.25) scale(42.1156 30.3433)">
<stop stop-color="#FF005F"/>
<stop offset="1" stop-color="#FC01D8"/>
</radialGradient>
<radialGradient id="paint1_radial_230_826" cx="0" cy="0" r="1" gradientUnits="userSpaceOnUse" gradientTransform="translate(14.6481 66.034) rotate(-90) scale(52.6149 55.8231)">
<stop stop-color="#FFCC00"/>
<stop offset="0.12" stop-color="#FFCC00"/>
<stop offset="0.57" stop-color="#FE4A05"/>
<stop offset="0.69" stop-color="#FF0F3F"/>
<stop offset="1" stop-color="#FE0657" stop-opacity="0"/>
</radialGradient>
<radialGradient id="paint2_radial_230_826" cx="0" cy="0" r="1" gradientUnits="userSpaceOnUse" gradientTransform="translate(30.6423 60.2918) rotate(-59.87) scale(21.7576 28.3247)">
<stop stop-color="#FFCC00"/>
<stop offset="1" stop-color="#FFCC00" stop-opacity="0"/>
</radialGradient>
<radialGradient id="paint3_radial_230_826" cx="0" cy="0" r="1" gradientUnits="userSpaceOnUse" gradientTransform="translate(5.21708 -4.10435) rotate(164.27) scale(41.65 14.1893)">
<stop stop-color="#780CFF"/>
<stop offset="1" stop-color="#820BFF" stop-opacity="0"/>
</radialGradient>
</defs>
</svg>
