<svg width="56" height="56" viewBox="0 0 56 56" fill="none" xmlns="http://www.w3.org/2000/svg">
<path d="M28 0C43.4656 0 56 12.5367 56 28C56 43.4656 43.4633 56 28 56C12.5344 56 0 43.4633 0 28C0 12.5344 12.5367 0 28 0Z" fill="#25A2DF"/>
<path fill-rule="evenodd" clip-rule="evenodd" d="M14.6018 27.8031C21.7036 24.7182 26.4328 22.6691 28.8054 21.6739C35.5634 18.8536 36.9837 18.3673 37.8974 18.3469C38.101 18.3469 38.5465 18.3876 38.8519 18.6319C39.0961 18.8355 39.1572 19.0978 39.1979 19.3014C39.2386 19.5049 39.2794 19.9301 39.2386 20.2558C38.8722 24.112 37.2913 33.4665 36.4793 37.7683C36.1333 39.5935 35.4638 40.2041 34.8147 40.2652C33.3944 40.3873 32.3178 39.3311 30.9585 38.4377C28.8076 37.0377 27.6112 36.1647 25.5191 34.7851C23.1036 33.2019 24.6664 32.3288 26.0461 30.9085C26.4102 30.5443 32.6412 24.8607 32.7634 24.354C32.7837 24.293 32.7837 24.0487 32.6412 23.9288C32.4987 23.8067 32.2952 23.8474 32.1346 23.8881C31.9107 23.9288 28.5023 26.2018 21.8664 30.6868C20.8916 31.3563 20.0209 31.682 19.2293 31.6616C18.3562 31.6413 16.6916 31.1754 15.4341 30.7683C13.912 30.282 12.6952 30.0174 12.797 29.1647C12.858 28.7191 13.4664 28.2713 14.6041 27.8054L14.6018 27.8031Z" fill="white"/>
</svg>
